<svg width="36" height="32" viewBox="0 0 36 32" fill="none" xmlns="http://www.w3.org/2000/svg">
<path d="M33.7233 23.5176C34.4757 23.2191 35.0123 22.4568 35.0123 21.5652V16C35.0123 14.8493 34.1187 13.9131 33.0202 13.9131H29.7389V9.06697C29.7389 8.6973 29.5938 8.36137 29.3582 8.10899C29.8536 7.53 30.2174 6.54461 29.5497 4.96451C29.0815 3.85634 28.2667 2.83707 27.8226 2.3282C27.6891 2.17516 27.4948 2.08716 27.2904 2.08716C27.086 2.08716 26.8917 2.17516 26.7582 2.3282C24.648 4.74663 24.1073 6.78106 25.2123 8.09334C24.9681 8.34718 24.8171 8.68958 24.8171 9.0669V13.913H21.3014V6.97988C21.3014 6.61021 21.1562 6.27421 20.9207 6.0219C21.4161 5.44284 21.7799 4.45752 21.1122 2.87735C20.6439 1.76918 19.8292 0.749981 19.3851 0.241043C19.2516 0.0879998 19.0573 0 18.8529 0C18.6485 0 18.4543 0.0879998 18.3207 0.241043C16.2107 2.65933 15.6699 4.69376 16.7748 6.00618C16.5306 6.26009 16.3797 6.60249 16.3797 6.97981V13.9129H12.864V9.06683C12.864 8.69716 12.7188 8.36123 12.4833 8.10892C12.9787 7.52986 13.3425 6.54454 12.6748 4.96437C12.2066 3.85613 11.3917 2.83693 10.9477 2.32806C10.8142 2.17495 10.6199 2.08702 10.4155 2.08702C10.2111 2.08702 10.0168 2.17502 9.88329 2.32806C7.77314 4.74642 7.2325 6.78086 8.3374 8.0932C8.0932 8.34711 7.94224 8.68951 7.94224 9.06683V13.9129H4.66068C3.56218 13.9129 2.66851 14.8491 2.66851 15.9999V21.5651C2.66851 22.4566 3.20514 23.2189 3.95755 23.5174L3.95762 29.9131C3.95762 30.1569 3.99812 30.391 4.07181 30.6087H3.58025C3.19199 30.6087 2.87713 30.9201 2.87713 31.3043C2.87713 31.6886 3.19199 32 3.58025 32H34.1007C34.4889 32 34.8038 31.6886 34.8038 31.3043C34.8038 30.9201 34.4889 30.6087 34.1007 30.6087H33.6091C33.6828 30.391 33.7233 30.1569 33.7233 29.9131V23.5176V23.5176ZM27.2874 3.89495C28.1333 5.03115 28.9477 6.57543 28.2167 7.28256C27.9703 7.52089 27.6417 7.65216 27.2912 7.65237H27.2822C26.9291 7.65028 26.605 7.52089 26.3697 7.28805C25.5596 6.48666 26.5349 4.88597 27.2874 3.89495ZM26.2233 9.06697C26.2233 9.05563 26.2355 9.0436 26.2469 9.0436H27.2738L27.2905 9.04367C27.291 9.04367 27.2915 9.0436 27.292 9.0436H28.3091C28.3206 9.0436 28.3328 9.05563 28.3328 9.06697V13.9131H26.2234V9.06697H26.2233ZM18.8498 1.80786C19.6957 2.94406 20.5102 4.48834 19.7791 5.19554C19.5328 5.43387 19.2041 5.56514 18.8537 5.56527H18.8446C18.4916 5.56319 18.1675 5.4338 17.9322 5.20103C17.1221 4.39957 18.0973 2.79888 18.8498 1.80786ZM19.8951 6.97995V13.9131H17.7857V6.97995C17.7857 6.96861 17.7979 6.95658 17.8094 6.95658H18.8361H18.8529C18.8534 6.95658 18.8539 6.95658 18.8544 6.95658H19.8715C19.8829 6.95658 19.8951 6.96861 19.8951 6.97995ZM10.4123 3.89488C11.2582 5.03102 12.0727 6.57536 11.3416 7.28249C11.0953 7.52082 10.7665 7.65209 10.416 7.6523H10.407C10.054 7.65021 9.72994 7.52082 9.4946 7.28798C8.6846 6.48659 9.65977 4.8859 10.4123 3.89488ZM9.34814 9.06697C9.34814 9.05563 9.36031 9.0436 9.37177 9.0436H10.3986L10.4153 9.04367C10.4158 9.04367 10.4163 9.0436 10.4168 9.0436H11.434C11.4455 9.0436 11.4576 9.05563 11.4576 9.06697V13.9131H9.34821V9.06697H9.34814ZM32.3169 24.0933H30.1347C29.7465 24.0933 29.4316 24.4047 29.4316 24.789C29.4316 25.1732 29.7465 25.4846 30.1347 25.4846H32.3169V29.9131C32.3169 30.29 32.0488 30.6084 31.7315 30.6087H5.94923C5.63191 30.6084 5.36388 30.29 5.36388 29.9131V29.3802H7.54603C7.93429 29.3802 8.24915 29.0687 8.24915 28.6845C8.24915 28.3003 7.93429 27.9889 7.54603 27.9889H5.36388L5.3638 23.5177C6.11629 23.2192 6.65292 22.4569 6.65292 21.5653V19.4951C6.65292 19.0342 6.98683 18.6448 7.38206 18.6448C7.77729 18.6448 8.1112 19.0342 8.1112 19.4951V22.3513C8.1112 23.5873 9.06914 24.5928 10.2467 24.5928C11.4241 24.5928 12.3821 23.5872 12.3821 22.3513V19.4951C12.3821 19.0342 12.716 18.6448 13.1112 18.6448C13.5065 18.6448 13.8404 19.0342 13.8404 19.4951V19.6729C13.8404 20.9089 14.7984 21.9145 15.9758 21.9145C17.1533 21.9145 18.1112 20.9089 18.1112 19.6729V19.4951C18.1112 19.0342 18.4451 18.6448 18.8403 18.6448C19.2356 18.6448 19.5696 19.0342 19.5696 19.4951V20.9599C19.5696 22.1958 20.5275 23.2014 21.705 23.2014C22.8824 23.2014 23.8404 22.1958 23.8404 20.9599V19.4951C23.8404 19.0342 24.1743 18.6448 24.5695 18.6448C24.9648 18.6448 25.2987 19.0342 25.2987 19.4951V19.6729C25.2987 20.9089 26.2566 21.9145 27.4341 21.9145C28.6116 21.9145 29.5695 20.9089 29.5695 19.6729V19.4951C29.5695 19.0342 29.9034 18.6448 30.2987 18.6448C30.6939 18.6448 31.0278 19.0342 31.0278 19.4951V21.5653C31.0278 22.4569 31.5645 23.2192 32.3169 23.5177V24.0933ZM33.6061 21.5652C33.6061 21.9423 33.3378 22.2609 33.0202 22.2609C32.7026 22.2609 32.4342 21.9423 32.4342 21.5652V19.495C32.4342 18.259 31.4763 17.2535 30.2988 17.2535C29.1213 17.2535 28.1634 18.259 28.1634 19.495V19.6729C28.1634 20.1337 27.8295 20.5231 27.4342 20.5231C27.039 20.5231 26.7051 20.1337 26.7051 19.6729V19.495C26.7051 18.259 25.7472 17.2535 24.5696 17.2535C23.3922 17.2535 22.4342 18.259 22.4342 19.495V20.9598C22.4342 21.4207 22.1003 21.81 21.7051 21.81C21.3099 21.81 20.976 21.4207 20.976 20.9598V19.495C20.976 18.259 20.018 17.2535 18.8405 17.2535C17.663 17.2535 16.7051 18.259 16.7051 19.495V19.6729C16.7051 20.1337 16.3712 20.5231 15.976 20.5231C15.5807 20.5231 15.2468 20.1337 15.2468 19.6729V19.495C15.2468 18.259 14.2889 17.2535 13.1113 17.2535C11.9339 17.2535 10.9759 18.259 10.9759 19.495V22.3512C10.9759 22.8121 10.642 23.2014 10.2468 23.2014C9.85151 23.2014 9.51759 22.8121 9.51759 22.3512V19.495C9.51759 18.259 8.55966 17.2535 7.3822 17.2535C6.20474 17.2535 5.2468 18.259 5.2468 19.495V21.5652C5.2468 21.9423 4.97849 22.2609 4.66082 22.2609C4.34322 22.2609 4.0749 21.9423 4.0749 21.5652V16C4.0749 15.623 4.34322 15.3044 4.66089 15.3044H33.0202C33.3378 15.3044 33.6061 15.623 33.6061 16V21.5652V21.5652Z" fill="#333333"/>
<path d="M35.2969 30.6087H35.2804C34.8921 30.6087 34.5772 30.9201 34.5772 31.3043C34.5772 31.6885 34.8921 32 35.2804 32H35.2969C35.6852 32 36 31.6885 36 31.3043C36 30.9201 35.6852 30.6087 35.2969 30.6087Z" fill="#333333"/>
<path d="M0.71965 30.6087H0.703126C0.31479 30.6087 0 30.9201 0 31.3043C0 31.6885 0.31479 32 0.703126 32H0.71965C1.10792 32 1.42278 31.6885 1.42278 31.3043C1.42278 30.9201 1.10799 30.6087 0.71965 30.6087Z" fill="#333333"/>
<path d="M8.74225 27.989H8.72572C8.33746 27.989 8.0226 28.3005 8.0226 28.6847C8.0226 29.0689 8.33746 29.3803 8.72572 29.3803H8.74225C9.13051 29.3803 9.44537 29.0689 9.44537 28.6847C9.44537 28.3005 9.13051 27.989 8.74225 27.989Z" fill="#333333"/>
<path d="M27.2743 24.0934H27.2577C26.8694 24.0934 26.5546 24.4049 26.5546 24.7891C26.5546 25.1733 26.8694 25.4847 27.2577 25.4847H27.2743C27.6626 25.4847 27.9774 25.1733 27.9774 24.7891C27.9774 24.4049 27.6626 24.0934 27.2743 24.0934Z" fill="#333333"/>
<path d="M17.9159 23.7458H16.58C16.1917 23.7458 15.8769 24.0572 15.8769 24.4414C15.8769 24.8256 16.1917 25.1371 16.58 25.1371H17.9159C18.3042 25.1371 18.6191 24.8256 18.6191 24.4414C18.6191 24.0572 18.3042 23.7458 17.9159 23.7458Z" fill="#333333"/>
<path d="M12.8534 25.7286H11.9394C11.5511 25.7286 11.2362 26.0401 11.2362 26.4243C11.2362 26.8085 11.5511 27.1199 11.9394 27.1199H12.8534C13.2418 27.1199 13.5566 26.8085 13.5566 26.4243C13.5566 26.0401 13.2417 25.7286 12.8534 25.7286Z" fill="#333333"/>
<path d="M28.5331 27.989H26.916C26.5277 27.989 26.2128 28.3005 26.2128 28.6847C26.2128 29.0689 26.5277 29.3803 26.916 29.3803H28.5331C28.9214 29.3803 29.2363 29.0689 29.2363 28.6847C29.2363 28.3005 28.9214 27.989 28.5331 27.989Z" fill="#333333"/>
<path d="M23.4355 25.0678H22.5214C22.1332 25.0678 21.8183 25.3792 21.8183 25.7634C21.8183 26.1476 22.1332 26.4591 22.5214 26.4591H23.4355C23.8237 26.4591 24.1386 26.1476 24.1386 25.7634C24.1386 25.3792 23.8237 25.0678 23.4355 25.0678Z" fill="#333333"/>
<path d="M19.498 27.989H18.5839C18.1956 27.989 17.8808 28.3005 17.8808 28.6847C17.8808 29.0689 18.1956 29.3803 18.5839 29.3803H19.498C19.8862 29.3803 20.2011 29.0689 20.2011 28.6847C20.2011 28.3005 19.8862 27.989 19.498 27.989Z" fill="#333333"/>
</svg>
