<svg width="40" height="40" viewBox="0 0 40 40" fill="none" xmlns="http://www.w3.org/2000/svg">
<path d="M33.0937 7H7.90625C6.30115 7 5 8.24719 5 9.78571V30.2143C5 31.7528 6.30115 33 7.90625 33H33.0937C34.6988 33 36 31.7528 36 30.2143V9.78571C36 8.24719 34.6988 7 33.0937 7ZM33.9054 31.375L7.03896 31.317C6.94261 31.317 6.85021 31.2803 6.78208 31.215C6.71395 31.1497 6.67568 31.0611 6.67568 30.9688V9.03125C6.67568 8.9389 6.71395 8.85033 6.78208 8.78503C6.85021 8.71972 6.94261 8.68304 7.03896 8.68304L33.9054 8.625C34.0018 8.625 34.0942 8.66169 34.1623 8.72699C34.2304 8.79229 34.2687 8.88086 34.2687 8.97321V31.0268C34.2687 31.1191 34.2304 31.2077 34.1623 31.273C34.0942 31.3383 34.0018 31.375 33.9054 31.375ZM30.1875 25.6875V26.2679C30.1875 26.6525 29.8622 26.9643 29.4609 26.9643H17.3516C16.9503 26.9643 16.625 26.6525 16.625 26.2679V25.6875C16.625 25.3029 16.9503 24.9911 17.3516 24.9911H29.4609C29.8622 24.9911 30.1875 25.3029 30.1875 25.6875ZM30.1875 20.1161V20.6964C30.1875 21.081 29.8622 21.3929 29.4609 21.3929H17.3516C16.9503 21.3929 16.625 21.081 16.625 20.6964V20.1161C16.625 19.7315 16.9503 19.4196 17.3516 19.4196H29.4609C29.8622 19.4196 30.1875 19.7315 30.1875 20.1161ZM30.1875 14.5446V15.125C30.1875 15.5096 29.8622 15.8214 29.4609 15.8214H17.3516C16.9503 15.8214 16.625 15.5096 16.625 15.125V14.5446C16.625 14.16 16.9503 13.8482 17.3516 13.8482H29.4609C29.8622 13.8482 30.1875 14.16 30.1875 14.5446ZM14.8053 14.4286C14.8053 15.5824 13.8294 16.5179 12.6256 16.5179C11.4218 16.5179 10.4459 15.5824 10.4459 14.4286C10.4459 13.2747 11.4218 12.3393 12.6256 12.3393C13.8294 12.3393 14.8053 13.2747 14.8053 14.4286ZM14.8053 20C14.8053 21.1539 13.8294 22.0893 12.6256 22.0893C11.4218 22.0893 10.4459 21.1539 10.4459 20C10.4459 18.8461 11.4218 17.9107 12.6256 17.9107C13.8294 17.9107 14.8053 18.8461 14.8053 20ZM14.8053 25.5714C14.8053 26.7253 13.8294 27.6607 12.6256 27.6607C11.4218 27.6607 10.4459 26.7253 10.4459 25.5714C10.4459 24.4176 11.4218 23.4821 12.6256 23.4821C13.8294 23.4821 14.8053 24.4176 14.8053 25.5714Z" fill="#4C4C4C"/>
</svg>
