<svg width="39" height="41" viewBox="0 0 39 41" fill="none" xmlns="http://www.w3.org/2000/svg">
<path d="M38.1237 8.96819C38.1237 8.31355 37.7922 7.737 37.2895 7.38131C36.5227 3.42863 32.9446 0.482758 28.8242 0.482758C27.1649 0.482758 25.5954 0.964971 24.2588 1.79331C24.2296 1.79331 24.2043 1.78821 24.1745 1.78821V1.84813C22.2349 3.08059 20.8107 5.05438 20.3589 7.38131C19.8562 7.737 19.5247 8.31355 19.5247 8.96819C19.5247 9.62282 19.8562 10.1994 20.3589 10.5551C20.9989 13.8525 23.5946 16.442 26.8315 17.212V38.9935C26.8315 40.073 27.7257 40.9517 28.8242 40.9517C29.9227 40.9517 30.8169 40.073 30.8169 38.9935V17.212C34.0539 16.4427 36.6496 13.8531 37.2895 10.5557C37.7922 10.1994 38.1237 9.62282 38.1237 8.96819ZM36.1309 9.62091H21.5175C21.151 9.62091 20.8532 9.32833 20.8532 8.96819C20.8532 8.60804 21.151 8.31546 21.5175 8.31546H36.1309C36.4974 8.31546 36.7952 8.60804 36.7952 8.96819C36.7952 9.32833 36.4974 9.62091 36.1309 9.62091ZM28.8242 1.78821C30.081 1.78821 31.2759 2.11712 32.3242 2.68762C32.0871 2.88363 31.8723 3.08983 31.6739 3.28489C31.0401 3.90765 30.5393 4.39911 29.4859 4.39911C28.4331 4.39911 27.9329 3.90765 27.2998 3.28489C26.9703 2.96044 26.5989 2.59902 26.1221 2.31154C26.9644 1.97689 27.8765 1.78821 28.8242 1.78821ZM24.6049 3.12744C25.3755 3.24505 25.8211 3.67722 26.3605 4.20788C27.0387 4.87495 27.883 5.70456 29.4859 5.70456C31.09 5.70456 31.9349 4.87495 32.6131 4.20788C32.8966 3.92901 33.1691 3.66288 33.4798 3.46241C34.5913 4.37234 35.4281 5.60002 35.8374 7.01001H21.811C22.2729 5.41995 23.277 4.05968 24.6049 3.12744ZM29.4885 38.9935C29.4885 39.3537 29.1907 39.6463 28.8242 39.6463C28.4577 39.6463 28.16 39.3537 28.16 38.9935V17.4237C28.3799 17.4405 28.6011 17.4536 28.8242 17.4536C29.0474 17.4536 29.2685 17.4405 29.4885 17.4237V38.9935ZM28.8242 16.1482C25.5555 16.1482 22.6906 13.9564 21.811 10.9264H35.8374C34.9578 13.9564 32.0929 16.1482 28.8242 16.1482Z" fill="#333333"/>
<path d="M9.56102 0.482758C4.79971 0.482758 0.925797 4.28947 0.925797 8.96819C0.925797 12.4269 3.04536 15.404 6.07307 16.7238L4.66284 22.2668L7.56827 21.5526V38.9935C7.56827 40.073 8.46248 40.9517 9.56102 40.9517C10.6596 40.9517 11.5538 40.073 11.5538 38.9935V21.5526L14.4592 22.2668L13.049 16.7238C16.0767 15.404 18.1962 12.4269 18.1962 8.96819C18.1962 4.28947 14.3223 0.482758 9.56102 0.482758V0.482758ZM16.3602 6.35728H11.6939C9.13192 6.35728 6.75061 5.19271 5.18632 3.23134C6.40714 2.32938 7.91889 1.78821 9.56102 1.78821C12.6517 1.78821 15.294 3.6871 16.3602 6.35728ZM4.19838 4.10812C6.01469 6.34103 8.75276 7.66273 11.6939 7.66273H16.7409C16.8207 8.08694 16.8677 8.52167 16.8677 8.96819C16.8677 9.73629 16.7416 10.4754 16.5129 11.1699C16.4863 11.1456 16.4607 11.1233 16.4341 11.0994C15.67 10.4062 14.8046 9.62091 13.1061 9.62091C11.4068 9.62091 10.5408 10.4062 9.77638 11.1001C9.07872 11.7318 8.528 12.2318 7.34837 12.2318C6.16875 12.2318 5.61737 11.7318 4.91939 11.0994C4.26909 10.5092 3.53965 9.85708 2.29094 9.67509C2.26759 9.44211 2.25429 9.20658 2.25429 8.96819C2.25429 7.09224 2.99638 5.38808 4.19838 4.10812ZM9.56102 39.6463C9.19451 39.6463 8.89677 39.3537 8.89677 38.9935V22.8733L9.56102 23.8524L10.2253 22.8733V38.9935C10.2253 39.3537 9.92752 39.6463 9.56102 39.6463ZM12.6338 20.4731L10.5966 19.9724L9.56102 21.4984L8.5254 19.9724L6.48822 20.4731L7.33183 17.1566C8.04441 17.344 8.78909 17.4536 9.56102 17.4536C10.3329 17.4536 11.0776 17.344 11.7902 17.1566L12.6338 20.4731ZM9.56102 16.1482C6.28032 16.1482 3.49846 14.0118 2.57831 11.0809C3.14623 11.2757 3.55165 11.6352 4.01838 12.0581C4.78317 12.752 5.64851 13.5373 7.34837 13.5373C9.04759 13.5373 9.91358 12.752 10.6784 12.0581C11.3751 11.4264 11.9264 10.9264 13.1061 10.9264C14.2844 10.9264 14.8358 11.4264 15.5328 12.0581C15.6693 12.1821 15.8097 12.3089 15.9563 12.4329C14.7102 14.6457 12.3117 16.1482 9.56102 16.1482Z" fill="#333333"/>
</svg>
