<svg xmlns="http://www.w3.org/2000/svg" viewBox="0 0 61.64 71.05"><title>Asset 8</title><g id="Layer_2" data-name="Layer 2"><g id="Layer_1-2" data-name="Layer 1"><path d="M59.33,12.24,37.64.49a4.57,4.57,0,0,0-6,1.8L19,25.87H3.52A3.47,3.47,0,0,0,0,29.38v6.18H0v32a3.47,3.47,0,0,0,3.52,3.51H52.81a3.47,3.47,0,0,0,3.52-3.51V58.62h1.46a1.35,1.35,0,0,0,1.37-1.37V47.05a1.36,1.36,0,0,0-1.37-1.38H56.33v-10a3.58,3.58,0,0,0-2.75-3.43l7.55-14A4.5,4.5,0,0,0,59.33,12.24ZM43.9,7,30.35,32.13H26.49L41,5.46ZM34.12,3.58a1.69,1.69,0,0,1,2.23-.69l2.15,1.2-15.09,28H18.69Zm-30.69,25h14L15.52,32H3.43a2.26,2.26,0,0,0-.77.09V29.3A.82.82,0,0,1,3.43,28.61Zm52.9,19.81v7.46H48.18a1.35,1.35,0,0,1-1.37-1.37V49.79a1.35,1.35,0,0,1,1.37-1.37h8.15Zm-8.15-2.75a4.12,4.12,0,0,0-4.11,4.12v4.72a4.11,4.11,0,0,0,4.11,4.11H53.5v8.92a.76.76,0,0,1-.77.77H3.43a.76.76,0,0,1-.77-.77V35.64h0a.76.76,0,0,1,.77-.77H52.64a.76.76,0,0,1,.77.77v10Zm10.46-28.8L50.41,32.13h-17L46.3,8.38,58,14.72A1.51,1.51,0,0,1,58.64,16.87Z"/><path d="M53.41,15.58l-.68-.34a3.75,3.75,0,0,0-5,1.46l-.85,1.62a3.62,3.62,0,0,0-.26,2.83,3.45,3.45,0,0,0,1.8,2.15l.69.34a3.71,3.71,0,0,0,5-1.46L55,20.55A3.84,3.84,0,0,0,53.41,15.58Zm-.94,3.69-.86,1.63a1,1,0,0,1-1.28.34l-.69-.43a1.27,1.27,0,0,1-.43-.51.67.67,0,0,1,.09-.69L50.16,18a1.11,1.11,0,0,1,.85-.51.83.83,0,0,1,.43.08l.69.35A1.33,1.33,0,0,1,52.47,19.27Z"/></g></g></svg>