<svg xmlns="http://www.w3.org/2000/svg" viewBox="0 0 74.21 71.11"><title>Asset 9</title><g id="Layer_2" data-name="Layer 2"><g id="Layer_1-2" data-name="Layer 1"><path d="M47.72,49.3V48q.54-.45,1.05-1a19.17,19.17,0,0,0,4.86-10.7,9.47,9.47,0,0,0,6.1-3.62c2-2.88,2.22-7,.52-12.22a1.38,1.38,0,0,0-.57-.73l-.77-.52A19,19,0,0,0,54.36,6.43C50.58,2.18,44.78,0,37.1,0h0C29.43,0,23.62,2.18,19.84,6.38A19,19,0,0,0,15.29,19.2l-.78.52a1.41,1.41,0,0,0-.56.73c-1.7,5.23-1.51,9.34.52,12.22a9.51,9.51,0,0,0,6.1,3.67,19.21,19.21,0,0,0,4.87,10.71q.51.51,1,1V49.3C21.12,50.34-.36,55.38,0,69.71a1.41,1.41,0,0,0,1.41,1.4H72.8a1.41,1.41,0,0,0,1.41-1.4C74.57,55.38,53.1,50.34,47.72,49.3ZM16.82,31c-1.41-2.05-1.53-5.15-.28-9.26l1-.68a1.42,1.42,0,0,0,.62-1.31A16.59,16.59,0,0,1,22,8.23c3.17-3.59,8.27-5.39,15.1-5.42S49,4.64,52.25,8.23a16.6,16.6,0,0,1,3.83,11.56,1.39,1.39,0,0,0,.61,1.31l1,.68C59,25.87,58.88,29,57.44,31a6.15,6.15,0,0,1-3,2.18,9.39,9.39,0,0,0,2.29-7,6.61,6.61,0,0,0-2.27-3.94C53.87,8.22,44,6.64,39.78,6.64a18.49,18.49,0,0,0-2.68.2,18.59,18.59,0,0,0-2.68-.2c-4.22,0-14,1.55-14.7,15.62a6.58,6.58,0,0,0-2.28,3.92,9.31,9.31,0,0,0,2.28,7,6.09,6.09,0,0,1-3-2.17Zm34.86-9.35a28.93,28.93,0,0,1-16.79-4.22,1.39,1.39,0,0,0-1.82.19c-2.81,3-7.94,3.72-10.41,3.87.76-9.93,6.77-12.09,11.83-12.09a12.89,12.89,0,0,1,2.4.2,1.75,1.75,0,0,0,.56,0,12.89,12.89,0,0,1,2.4-.2c5,0,11.06,2.22,11.76,12.23ZM23.21,33.48a1.42,1.42,0,0,0-.35-.94c-1.93-2.2-2.81-4.21-2.57-5.87a3.72,3.72,0,0,1,1.27-2.37c1.86,0,8.43-.35,12.65-4A31.57,31.57,0,0,0,49.8,24.52a19.05,19.05,0,0,0,2.89-.15A3.68,3.68,0,0,1,54,26.67c.24,1.63-.64,3.67-2.57,5.87a1.43,1.43,0,0,0-.35,1v.73L42.86,38.6a4,4,0,1,0,1.26,2.93,2.41,2.41,0,0,0,0-.38l6.45-3.45a15.39,15.39,0,0,1-3.77,7.41,12.51,12.51,0,0,1-9.31,3.49h-.7a12.58,12.58,0,0,1-9.3-3.47c-4.44-4.43-4.34-11.59-4.34-11.66Zm18.1,8.05a1.25,1.25,0,1,1-1.25-1.25h0A1.25,1.25,0,0,1,41.31,41.53ZM35.69,68.22H2.86c1.11-10.55,18.26-15,23.62-16.1v2.52c0,3.19,3.88,5.62,9.21,6ZM29.29,54.6V49.79a17.14,17.14,0,0,0,7.46,1.58h.7a17.17,17.17,0,0,0,7.46-1.58v4.85c0,1.33-3,3.26-7.81,3.26S29.29,56,29.29,54.64ZM38.5,68.26V60.65c5.34-.37,9.22-2.81,9.22-6V52.17c5.41,1.12,22.47,5.53,23.62,16.09Z"/></g></g></svg>