<svg width="101" height="104" viewBox="0 0 101 104" fill="none" xmlns="http://www.w3.org/2000/svg">
<path d="M53.5683 22.3442L47.2946 30.5997L48.5641 31.5616C48.87 31.16 49.3229 30.8963 49.8234 30.8284C50.3239 30.7605 50.8309 30.894 51.2328 31.1996C51.6348 31.5052 51.8988 31.9577 51.9667 32.4578C52.0347 32.9578 51.901 33.4644 51.5952 33.866L55.5573 36.868L61.831 28.6125L53.5683 22.3442ZM53.1557 29.215C52.8619 28.9893 52.6414 28.6819 52.5222 28.3313C52.4029 27.9807 52.3901 27.6027 52.4854 27.2449C52.5807 26.8871 52.7798 26.5655 53.0577 26.3205C53.3356 26.0755 53.6798 25.9182 54.0471 25.8683C54.4143 25.8184 54.788 25.8782 55.1213 26.0401C55.4546 26.202 55.7325 26.4588 55.92 26.7782C56.1075 27.0976 56.1962 27.4653 56.1749 27.835C56.1537 28.2046 56.0234 28.5597 55.8006 28.8556C55.6509 29.0532 55.4636 29.2193 55.2495 29.3443C55.0354 29.4694 54.7986 29.551 54.5529 29.5844C54.3071 29.6177 54.0572 29.6023 53.8174 29.5389C53.5776 29.4755 53.3528 29.3655 53.1557 29.215ZM55.2716 33.0838C55.0509 32.915 54.8852 32.6847 54.7954 32.422C54.7055 32.1593 54.6955 31.8759 54.7666 31.6075C54.8378 31.3391 54.9869 31.0977 55.1951 30.9139C55.4033 30.73 55.6614 30.6119 55.9367 30.5744C56.2121 30.5369 56.4924 30.5817 56.7423 30.7031C56.9922 30.8245 57.2005 31.0172 57.3409 31.2567C57.4814 31.4963 57.5477 31.7721 57.5316 32.0492C57.5154 32.3264 57.4174 32.5926 57.25 32.8142C57.139 32.963 56.9996 33.0884 56.8398 33.1831C56.6801 33.2778 56.5031 33.34 56.3192 33.366C56.1353 33.3921 55.948 33.3815 55.7682 33.3348C55.5884 33.2882 55.4196 33.2065 55.2716 33.0943V33.0838Z" fill="#333333"/>
<path d="M62.8943 31.3289C63.0759 31.6895 63.3153 32.018 63.6031 32.3014C63.9668 32.7835 64.2393 33.328 64.4072 33.9081C64.4601 34.0825 64.8409 35.1554 64.6823 35.3139C64.6823 35.3139 63.4497 36.5876 63.217 37.4016C63.179 37.6338 63.1666 37.8695 63.1799 38.1045C63.1799 38.2419 63.2857 38.2895 63.4021 38.2102C64.0203 37.7338 64.7191 37.3722 65.4651 37.1426C66.4842 36.9148 67.5441 36.9438 68.5491 37.2272C68.6814 37.2642 68.7607 37.1954 68.7184 37.0633C68.593 36.6303 68.3865 36.225 68.1101 35.8689C67.7241 35.5031 67.238 35.2602 66.7135 35.1712L66.2163 35.0285C66.1559 35.0167 66.1001 34.9881 66.0552 34.946C66.0103 34.904 65.9781 34.8501 65.9624 34.7907C65.9624 34.7061 65.9624 34.6163 65.9624 34.611C65.9298 34.0123 65.852 33.4169 65.7296 32.8299C65.6012 32.0678 65.3009 31.3448 64.8515 30.7158C64.7549 30.5773 64.6317 30.4593 64.4892 30.3686C64.3466 30.2779 64.1875 30.2162 64.021 30.1873C63.455 30.1344 62.6615 30.6577 62.9049 31.2919L62.8943 31.3289Z" fill="#333333"/>
<path d="M65.6397 61.2011C66.763 60.8309 67.7236 60.084 68.3587 59.087C68.7352 58.5121 69.0257 57.8854 69.2209 57.2266C70.2789 53.749 72.0298 45.6468 72.0827 42.3488C72.1356 39.0508 68.3798 37.3701 65.7085 38.0149C63.0371 38.6597 59.7098 42.3594 61.0217 44.5422C62.0797 46.3391 63.3651 50.3559 63.8729 54.3462C64.0739 55.9317 64.2167 57.5702 64.4019 59.1874C64.4337 59.6187 64.492 60.0476 64.5765 60.4717C64.7087 61.0954 65.0367 61.3861 65.6662 61.1905L65.6397 61.2011ZM65.5286 54.2299C65.407 53.2469 65.2324 52.2744 65.0367 51.3019C64.6784 49.6596 64.2244 48.0396 63.6772 46.4501C63.2857 45.2398 62.5557 44.1141 62.4817 43.6225C62.36 42.835 63.0107 42.0898 63.8094 42.4968C64.3293 42.7645 64.765 43.1706 65.0684 43.6701C65.7614 44.7747 65.9518 46.2651 66.0946 47.4649C66.3037 49.4423 66.3196 51.4354 66.1422 53.416C66.0999 53.9445 65.7243 55.9793 65.7614 56.4021C65.6926 55.6781 65.6186 54.9434 65.5286 54.2299Z" fill="#333333"/>
<path d="M49.5956 53.1623C48.7006 52.7335 47.7152 52.5268 46.7232 52.5598C46.1202 52.5598 46.0831 53.5323 46.7232 53.5006C47.6401 53.4647 48.5509 53.6649 49.3681 54.082C49.5598 53.7558 49.7927 53.4556 50.0611 53.1888C50.3509 52.917 50.6682 52.6761 51.008 52.47C50.9767 52.3958 50.9276 52.3305 50.8651 52.2797C49.3628 51.0694 48.6275 49.32 47.924 47.5812C47.6912 47.0157 46.866 47.4755 47.0935 48.0304C47.4183 48.8693 47.7964 49.6867 48.2255 50.4775C47.6802 49.8091 47.1834 49.1026 46.7391 48.3634C46.427 47.8349 45.5965 48.2894 45.9086 48.8126C46.8838 50.458 48.1365 51.9225 49.6114 53.1412L49.5956 53.1623Z" fill="#333333"/>
<path d="M50.2622 54.7477C49.8992 55.3036 49.6894 55.9453 49.6539 56.6081C49.6482 56.8673 49.6977 57.1247 49.7989 57.3634C49.9001 57.602 50.0508 57.8166 50.241 57.9928L50.696 58.3416C50.7711 57.3388 51.1766 56.3891 51.8492 55.6409C52.2671 55.1969 53.2086 56.1271 52.796 56.5711C52.1401 57.2538 51.771 58.1617 51.7645 59.108L52.6003 59.8215C52.7285 58.9895 53.096 58.2128 53.6583 57.5859C54.0762 57.1419 55.0707 58.1144 54.6528 58.553C54.1223 59.1677 53.8115 59.9412 53.7694 60.7517L54.5099 61.3172C54.6827 60.6514 55.0191 60.0392 55.4886 59.5361C55.9065 59.0869 56.8216 59.9801 56.4037 60.424C55.9707 60.9073 55.6877 61.5059 55.5891 62.147L60.3869 65.8466C60.6498 66.1225 61.0064 66.2902 61.3867 66.317C61.5982 66.3255 61.8076 66.272 61.989 66.163C62.1704 66.0541 62.3159 65.8945 62.4077 65.7039C62.5145 65.4596 62.5464 65.189 62.4994 64.9265C62.4523 64.664 62.3283 64.4214 62.1432 64.2293L54.9649 53.2203C54.822 53.04 54.6404 52.8941 54.4334 52.7935C54.2265 52.6928 53.9995 52.64 53.7694 52.6389C53.0093 52.6643 52.2734 52.9124 51.6534 53.3524C51.3689 53.5279 51.1015 53.7296 50.8547 53.9549C50.6132 54.1898 50.405 54.4565 50.2358 54.7477H50.2622Z" fill="#333333"/>
<path d="M45.8398 22.989C45.6263 22.7942 45.3759 22.6442 45.1032 22.548C44.8306 22.4518 44.5414 22.4112 44.2529 22.4288C42.4702 22.4288 39.7829 23.6867 36.6672 25.9752C38.9366 27.5607 39.7248 28.7499 39.6613 28.8979C39.588 28.9293 39.508 28.942 39.4285 28.9349C39.0354 28.9117 38.6482 28.8279 38.2806 28.6865C37.178 28.2891 36.1224 27.7715 35.1332 27.1432C33.9641 28.1051 32.7475 29.215 31.6102 30.3566C33.0202 31.2216 34.328 32.2428 35.5088 33.4009C36.4715 34.3998 36.6461 34.9864 36.5667 35.0868C36.5667 35.0868 36.4504 35.1767 36.1488 35.1767C35.6149 35.1485 35.0885 35.038 34.5883 34.849C33.0076 34.2835 31.4985 33.5349 30.092 32.6187C29.9544 32.5341 29.8169 32.439 29.6794 32.3491C28.6214 33.5119 27.7433 34.5108 27.3201 35.0816C27.1244 35.3352 26.934 35.5836 26.7488 35.8373C27.1861 36.0699 27.6199 36.3183 28.0501 36.5826C29.1194 37.2327 30.1099 38.0042 31.0018 38.8816C31.7107 39.6163 31.7741 39.9386 31.7847 40.0179C31.7953 40.0972 31.4356 40.1395 30.4199 39.8012C29.2447 39.3761 28.1214 38.8194 27.0715 38.1417C26.6483 37.8616 26.2145 37.555 25.7913 37.2379C23.2998 40.9375 22.4905 43.8867 23.7124 45.1023C23.9245 45.2992 24.1748 45.4505 24.4478 45.5468C24.7207 45.6432 25.0106 45.6826 25.2994 45.6625C28.1347 45.6625 33.3294 42.3804 38.2224 37.4916C40.9092 34.8932 43.2154 31.929 45.0728 28.6865C46.5222 25.9646 46.792 23.9298 45.8398 22.989Z" fill="#333333"/>
<path d="M31.134 50.6148C30.7892 50.5717 30.4599 50.4458 30.1744 50.2479C29.8888 50.05 29.6554 49.786 29.4942 49.4785L29.272 49.0186C29.3147 48.9989 29.3529 48.9707 29.3844 48.9359C29.416 48.901 29.4401 48.8601 29.4554 48.8157C29.4707 48.7713 29.4769 48.7242 29.4736 48.6774C29.4702 48.6305 29.4575 48.5848 29.436 48.543L28.8171 47.2534C28.7739 47.1689 28.6995 47.1045 28.6097 47.0739C28.5198 47.0433 28.4215 47.0489 28.3357 47.0895L24.4741 48.9552C24.3896 48.9983 24.3251 49.0727 24.2945 49.1625C24.2639 49.2523 24.2695 49.3504 24.3102 49.4362L24.9344 50.7205C24.9541 50.7631 24.9823 50.8013 25.0172 50.8328C25.0521 50.8643 25.093 50.8884 25.1375 50.9037C25.1819 50.919 25.229 50.9252 25.2759 50.9219C25.3228 50.9185 25.3686 50.9058 25.4104 50.8843L25.6326 51.3441C25.7741 51.6616 25.837 52.0084 25.8158 52.3553C25.7946 52.7021 25.69 53.0388 25.5109 53.3366C25.2971 53.7231 25.1792 54.1553 25.1673 54.5967C25.1553 55.0382 25.2496 55.476 25.4422 55.8735L29.399 64.0392C29.5656 64.3789 29.8594 64.6393 30.2169 64.7639C30.5744 64.8886 30.9666 64.8675 31.3086 64.7051L36.4556 62.2105C36.6254 62.1297 36.7775 62.016 36.9031 61.8761C37.0287 61.7362 37.1252 61.5728 37.1872 61.3954C37.2492 61.218 37.2754 61.0301 37.2642 60.8425C37.253 60.6549 37.2047 60.4714 37.1221 60.3025L33.1653 52.1369C32.973 51.7396 32.6882 51.3941 32.3348 51.1293C31.9814 50.8644 31.5697 50.688 31.134 50.6148ZM26.6959 50.2659L27.9866 49.6423L28.2088 50.1021C28.4676 50.616 28.8473 51.0595 29.3153 51.3946C29.7834 51.7296 30.3258 51.9463 30.896 52.0259C31.1063 52.0622 31.3051 52.1477 31.4761 52.2754C31.6471 52.403 31.7855 52.5693 31.8799 52.7606L32.2449 53.5269C31.3825 53.8985 30.4729 54.1493 29.5418 54.2721C28.5511 54.4019 27.5828 54.6669 26.6641 55.0596C26.607 54.8863 26.5859 54.703 26.6023 54.5213C26.6187 54.3395 26.6721 54.163 26.7593 54.0026C27.0524 53.5063 27.22 52.9461 27.2477 52.3706C27.2753 51.795 27.1622 51.2214 26.918 50.6993L26.6959 50.2659Z" fill="#333333"/>
<path d="M60.1753 54.679C60.0046 54.7422 59.817 54.7422 59.6463 54.679L58.6624 54.2879C58.244 54.1235 57.8702 53.8631 57.5711 53.5276C57.272 53.1922 57.0561 52.7912 56.9408 52.357C56.8254 51.9228 56.8139 51.4676 56.9071 51.0282C57.0004 50.5887 57.1957 50.1773 57.4775 49.8272C57.6105 49.663 57.7028 49.4697 57.7469 49.263C57.791 49.0564 57.7857 48.8423 57.7314 48.6381C57.6787 48.4312 57.578 48.2397 57.4374 48.079C57.2967 47.9183 57.1202 47.793 56.922 47.7132L56.1339 47.4013C55.7325 47.2387 55.3733 46.9871 55.0834 46.6656C54.7935 46.3441 54.5804 45.961 54.4602 45.5452C54.34 45.1295 54.3158 44.6919 54.3895 44.2654C54.4631 43.839 54.6327 43.4348 54.8855 43.0833L55.2346 42.6024C55.3504 42.4403 55.4291 42.2548 55.4652 42.059C55.5013 41.8631 55.4938 41.6618 55.4433 41.4691C55.3929 41.2765 55.3006 41.0973 55.1731 40.9443C55.0456 40.7912 54.886 40.668 54.7056 40.5834C54.5253 40.4972 54.3867 40.343 54.3202 40.1547C54.2538 39.9664 54.2649 39.7594 54.3512 39.5793C54.4375 39.3991 54.5918 39.2606 54.7803 39.1942C54.9688 39.1278 55.176 39.1389 55.3563 39.2251C55.7371 39.4034 56.0741 39.6632 56.3432 39.9861C56.6123 40.3091 56.8071 40.6872 56.9136 41.0937C57.0201 41.5002 57.0358 41.9252 56.9595 42.3385C56.8833 42.7517 56.717 43.1431 56.4724 43.485L56.1233 43.966C56.0023 44.133 55.9209 44.3253 55.8854 44.5284C55.8499 44.7315 55.8611 44.94 55.9182 45.1382C55.9753 45.3363 56.0767 45.5188 56.2149 45.6719C56.3531 45.8251 56.5244 45.9447 56.7157 46.0219L57.5039 46.3337C57.9192 46.4988 58.29 46.7587 58.5866 47.0926C58.8832 47.4266 59.0975 47.8253 59.2121 48.2569C59.3268 48.6884 59.3387 49.1408 59.2469 49.5778C59.1551 50.0148 58.9622 50.4242 58.6836 50.7733C58.5502 50.9392 58.4576 51.1341 58.4135 51.3423C58.3693 51.5505 58.3747 51.7662 58.4293 51.9719C58.4839 52.1776 58.586 52.3676 58.7276 52.5266C58.8692 52.6857 59.0461 52.8092 59.2443 52.8874L60.2282 53.2785C60.3679 53.3381 60.4863 53.4387 60.5676 53.567C60.649 53.6953 60.6894 53.8452 60.6837 53.9969C60.678 54.1487 60.6263 54.2951 60.5355 54.4169C60.4448 54.5387 60.3192 54.6301 60.1753 54.679Z" fill="#333333"/>
<path d="M44.7342 40.6678C42.5231 38.6488 42.5072 36.9682 42.4226 36.5559C41.6503 36.8975 40.946 37.3755 40.3437 37.9671C39.259 39.086 38.4558 40.4464 38.0003 41.9362C37.6612 42.9855 37.436 44.0681 37.3285 45.1655L33.5304 45.4245H33.4299H33.4034H33.377C33.3747 45.4349 33.3747 45.4457 33.377 45.4562C33.377 45.4562 33.377 45.4562 33.377 45.4879C33.377 45.4879 33.377 45.4879 33.377 45.5196V45.583V45.6253V45.6517C33.377 45.6517 33.377 45.6517 33.377 45.6782H33.4034H33.4352L37.0164 47.1897L38.4869 51.5077C38.4898 51.5163 38.4898 51.5256 38.4869 51.5341V51.5659L38.5187 51.5976L38.5451 51.6293H38.5716L38.6086 51.6557H38.6456H38.889H38.9313H38.963H38.9948C38.9948 51.6557 38.9948 51.6557 38.9948 51.6293C38.9948 51.6293 38.9948 51.6293 38.9948 51.5976L39.2593 47.7817C40.352 47.6714 41.43 47.4464 42.4755 47.1104C44.1503 46.6548 45.6767 45.7692 46.9031 44.5418C47.8129 43.6328 47.8552 43.7332 48.3789 42.3696C48.1409 42.2851 46.0091 41.8411 44.7342 40.6678Z" fill="#333333"/>
<path d="M49.6802 36.0857C49.6788 35.8661 49.5909 35.6558 49.4354 35.5005C49.28 35.3452 49.0695 35.2573 48.8497 35.2559C47.3727 35.2447 45.8994 35.4043 44.4591 35.7316C44.1312 35.8126 43.8085 35.8972 43.4911 35.9853L43.5281 36.1544C43.5704 36.3552 43.618 36.5561 43.6286 36.6089C43.9291 37.7372 44.5229 38.7661 45.3497 39.5913C46.1765 40.4164 47.2069 41.0085 48.3366 41.3075L48.9396 41.4766C49.0401 41.1489 49.1248 40.8159 49.2041 40.4724C49.5319 39.0335 49.6916 37.5614 49.6802 36.0857ZM47.6013 38.6067L47.5325 38.6649L47.4796 38.7283L47.4056 38.7706L47.3262 38.8076L47.2469 38.8393H47.1622H47.0723H46.8977H46.8131H46.7285L46.6438 38.8076C46.6177 38.7985 46.5928 38.786 46.5698 38.7706L46.4746 38.7283L46.4058 38.6754L46.3423 38.6173C46.1777 38.4491 46.0848 38.2236 46.0831 37.9884V37.8985V37.814C46.0807 37.7858 46.0807 37.7575 46.0831 37.7294C46.0831 37.703 46.0831 37.6713 46.0831 37.6448C46.0976 37.6195 46.11 37.593 46.1201 37.5656L46.1677 37.4916C46.1837 37.4674 46.2014 37.4444 46.2206 37.4229L46.2788 37.3594L46.3423 37.3013L46.4111 37.2484L46.4904 37.2009L46.5645 37.1639L46.6491 37.1375H46.7338H46.8184H46.993H47.0829H47.1675L47.2469 37.1639L47.3262 37.2009L47.4003 37.2484L47.469 37.3013C47.4943 37.3178 47.5174 37.3373 47.5378 37.3594C47.7038 37.5267 47.797 37.7528 47.797 37.9884C47.8075 38.2079 47.7379 38.4239 47.6013 38.5962V38.6067Z" fill="#333333"/>
<path d="M46.6014 63.3415C46.1095 62.5117 45.5911 61.6978 45.8926 61.4071C45.901 61.3926 45.9054 61.3762 45.9054 61.3595C45.9054 61.3428 45.901 61.3264 45.8926 61.312C45.8871 61.2952 45.8765 61.2806 45.8623 61.2702C45.848 61.2598 45.8309 61.2541 45.8133 61.2538C45.752 61.243 45.6893 61.243 45.6281 61.2538C46.2193 60.2391 46.9942 59.343 47.9133 58.6112C48.3153 58.273 48.4 58.1831 48.3735 58.0827C48.3669 58.0594 48.3532 58.0386 48.3342 58.0235C48.3152 58.0083 48.292 57.9995 48.2677 57.9982C47.4584 57.8766 46.3052 58.5848 45.443 59.5044C45.5858 58.7645 45.6916 58.1091 45.7445 57.6071C45.8344 56.7297 45.7445 56.6293 45.6281 56.6029C45.5117 56.5764 45.3795 56.6029 45.0304 57.4538C44.8346 57.9189 44.6019 58.5584 44.3744 59.2772C44.0729 58.0352 43.4064 56.8301 42.6182 56.5553C42.5981 56.5437 42.5753 56.5376 42.5521 56.5376C42.5289 56.5376 42.5061 56.5437 42.486 56.5553C42.4066 56.6399 42.4542 56.7509 42.6288 57.2477C43.0819 58.3216 43.3312 59.4704 43.3641 60.6355C43.3293 60.6023 43.2878 60.5771 43.2424 60.5615C43.2287 60.5512 43.212 60.5456 43.1948 60.5456C43.1776 60.5456 43.1609 60.5512 43.1472 60.5615C43.1393 60.5761 43.1352 60.5924 43.1352 60.609C43.1352 60.6256 43.1393 60.642 43.1472 60.6566C43.2636 61.0583 42.4066 61.5445 41.5602 62.0096C40.7139 62.4747 40.0156 62.8922 39.7194 63.3785C39.5439 63.6607 39.4392 63.981 39.4143 64.3123C39.3895 64.6436 39.4451 64.976 39.5765 65.2812C40.005 66.3012 41.227 67.2155 42.7504 67.6172H42.7769C44.3321 68.0189 45.845 67.8128 46.7072 67.0887C46.9686 66.8821 47.1766 66.6159 47.3137 66.3125C47.4509 66.009 47.5132 65.6771 47.4954 65.3446C47.5272 64.8583 47.0564 64.0973 46.6014 63.3415Z" fill="#333333"/>
<path d="M42.4279 55.1124C43.1115 55.1124 43.6657 54.5587 43.6657 53.8757C43.6657 53.1926 43.1115 52.6389 42.4279 52.6389C41.7443 52.6389 41.1901 53.1926 41.1901 53.8757C41.1901 54.5587 41.7443 55.1124 42.4279 55.1124Z" fill="#333333"/>
<path d="M51.5159 66.0794C52.1995 66.0794 52.7537 65.5257 52.7537 64.8427C52.7537 64.1597 52.1995 63.606 51.5159 63.606C50.8323 63.606 50.2781 64.1597 50.2781 64.8427C50.2781 65.5257 50.8323 66.0794 51.5159 66.0794Z" fill="#333333"/>
<rect x="2" y="17.9617" width="91" height="55.0383" rx="8" stroke="#333333" stroke-width="4"/>
<path d="M22.0333 14.4616L22.2597 5.63661C22.3081 3.75119 24.0636 2.37756 25.9053 2.78406L86.3945 16.1352C87.056 16.2812 87.6486 16.6468 88.0759 17.1724L92 22L88.311 18.1038C87.7401 17.5007 86.9447 17.1613 86.1143 17.1664L25.0506 17.5385C23.3564 17.5488 21.9898 16.1552 22.0333 14.4616Z" stroke="#333333" stroke-width="4"/>
<path d="M9.5498 88.9072C9.5498 90.5524 9.0804 91.8125 8.1416 92.6875C7.20736 93.5625 5.85612 94 4.08789 94H1.25781V84.0059H4.39551C6.02702 84.0059 7.29395 84.4365 8.19629 85.2979C9.09863 86.1592 9.5498 87.3623 9.5498 88.9072ZM7.34863 88.9619C7.34863 86.8154 6.40072 85.7422 4.50488 85.7422H3.37695V92.25H4.28613C6.3278 92.25 7.34863 91.154 7.34863 88.9619ZM13.1182 90.165C13.1182 90.9215 13.2412 91.4935 13.4873 91.8809C13.738 92.2682 14.1436 92.4619 14.7041 92.4619C15.2601 92.4619 15.6589 92.2705 15.9004 91.8877C16.1465 91.5003 16.2695 90.9261 16.2695 90.165C16.2695 89.4085 16.1465 88.8411 15.9004 88.4629C15.6543 88.0846 15.251 87.8955 14.6904 87.8955C14.1344 87.8955 13.7334 88.0846 13.4873 88.4629C13.2412 88.8366 13.1182 89.404 13.1182 90.165ZM18.4023 90.165C18.4023 91.4092 18.0742 92.3822 17.418 93.084C16.7617 93.7858 15.848 94.1367 14.6768 94.1367C13.943 94.1367 13.2959 93.9772 12.7354 93.6582C12.1748 93.3346 11.7441 92.8721 11.4434 92.2705C11.1426 91.6689 10.9922 90.9671 10.9922 90.165C10.9922 88.9163 11.318 87.9456 11.9697 87.2529C12.6214 86.5602 13.5374 86.2139 14.7178 86.2139C15.4515 86.2139 16.0986 86.3734 16.6592 86.6924C17.2197 87.0114 17.6504 87.4694 17.9512 88.0664C18.252 88.6634 18.4023 89.363 18.4023 90.165ZM26.9678 94H24.8828V89.5361C24.8828 88.9847 24.7894 88.5723 24.6025 88.2988C24.4202 88.0208 24.1309 87.8818 23.7344 87.8818C23.2012 87.8818 22.8138 88.0778 22.5723 88.4697C22.3307 88.8617 22.21 89.5065 22.21 90.4043V94H20.125V86.3574H21.7178L21.998 87.335H22.1143C22.3193 86.984 22.6156 86.7106 23.0029 86.5146C23.3903 86.3141 23.8346 86.2139 24.3359 86.2139C25.4798 86.2139 26.2546 86.5876 26.6602 87.335H26.8447C27.0498 86.9795 27.3506 86.7038 27.7471 86.5078C28.1481 86.3118 28.5993 86.2139 29.1006 86.2139C29.9665 86.2139 30.6204 86.4372 31.0625 86.8838C31.5091 87.3258 31.7324 88.0368 31.7324 89.0166V94H29.6406V89.5361C29.6406 88.9847 29.5472 88.5723 29.3604 88.2988C29.1781 88.0208 28.8887 87.8818 28.4922 87.8818C27.9818 87.8818 27.599 88.0641 27.3438 88.4287C27.0931 88.7933 26.9678 89.3721 26.9678 90.165V94ZM38.0762 94.1367C37.1784 94.1367 36.4743 93.8109 35.9639 93.1592H35.8545C35.9274 93.7972 35.9639 94.1663 35.9639 94.2666V97.3633H33.8789V86.3574H35.5742L35.8682 87.3486H35.9639C36.4515 86.5921 37.1738 86.2139 38.1309 86.2139C39.0332 86.2139 39.7396 86.5625 40.25 87.2598C40.7604 87.957 41.0156 88.9255 41.0156 90.165C41.0156 90.9808 40.8949 91.6895 40.6533 92.291C40.4163 92.8926 40.0768 93.3506 39.6348 93.665C39.1927 93.9795 38.6732 94.1367 38.0762 94.1367ZM37.4609 87.8818C36.946 87.8818 36.57 88.0413 36.333 88.3604C36.096 88.6748 35.973 89.1966 35.9639 89.9258V90.1514C35.9639 90.9717 36.0846 91.5596 36.3262 91.915C36.5723 92.2705 36.9596 92.4482 37.4883 92.4482C38.4225 92.4482 38.8896 91.6781 38.8896 90.1377C38.8896 89.3857 38.7734 88.8229 38.541 88.4492C38.3132 88.071 37.9531 87.8818 37.4609 87.8818ZM45.9033 87.6973C45.4613 87.6973 45.1149 87.8385 44.8643 88.1211C44.6136 88.3991 44.4701 88.7956 44.4336 89.3105H47.3594C47.3503 88.7956 47.2158 88.3991 46.9561 88.1211C46.6963 87.8385 46.3454 87.6973 45.9033 87.6973ZM46.1973 94.1367C44.9668 94.1367 44.0052 93.7972 43.3125 93.1182C42.6198 92.4391 42.2734 91.4775 42.2734 90.2334C42.2734 88.9528 42.5924 87.9639 43.2305 87.2666C43.873 86.5648 44.7594 86.2139 45.8896 86.2139C46.9697 86.2139 47.8105 86.5215 48.4121 87.1367C49.0137 87.752 49.3145 88.6019 49.3145 89.6865V90.6982H44.3857C44.4085 91.2907 44.584 91.7533 44.9121 92.0859C45.2402 92.4186 45.7005 92.585 46.293 92.585C46.7533 92.585 47.1885 92.5371 47.5986 92.4414C48.0088 92.3457 48.4372 92.193 48.8838 91.9834V93.5967C48.5192 93.779 48.1296 93.9134 47.7148 94C47.3001 94.0911 46.7943 94.1367 46.1973 94.1367ZM54.2295 92.4756C54.5941 92.4756 55.0316 92.3958 55.542 92.2363V93.7881C55.0225 94.0205 54.3844 94.1367 53.6279 94.1367C52.7939 94.1367 52.1855 93.9271 51.8027 93.5078C51.4245 93.084 51.2354 92.4505 51.2354 91.6074V87.9229H50.2373V87.041L51.3857 86.3438L51.9873 84.7305H53.3203V86.3574H55.46V87.9229H53.3203V91.6074C53.3203 91.9036 53.4023 92.1224 53.5664 92.2637C53.735 92.4049 53.9561 92.4756 54.2295 92.4756ZM59.377 88.4424H60.0605C60.7305 88.4424 61.2249 88.3307 61.5439 88.1074C61.863 87.8841 62.0225 87.5332 62.0225 87.0547C62.0225 86.5807 61.8584 86.2435 61.5303 86.043C61.2067 85.8424 60.7031 85.7422 60.0195 85.7422H59.377V88.4424ZM59.377 90.165V94H57.2578V84.0059H60.1699C61.528 84.0059 62.5329 84.2542 63.1846 84.751C63.8363 85.2432 64.1621 85.9928 64.1621 87C64.1621 87.5879 64.0003 88.112 63.6768 88.5723C63.3532 89.028 62.8952 89.3857 62.3027 89.6455C63.8066 91.8923 64.7865 93.3438 65.2422 94H62.8906L60.5049 90.165H59.377ZM69.501 87.6973C69.0589 87.6973 68.7126 87.8385 68.4619 88.1211C68.2113 88.3991 68.0677 88.7956 68.0312 89.3105H70.957C70.9479 88.7956 70.8135 88.3991 70.5537 88.1211C70.2939 87.8385 69.943 87.6973 69.501 87.6973ZM69.7949 94.1367C68.5645 94.1367 67.6029 93.7972 66.9102 93.1182C66.2174 92.4391 65.8711 91.4775 65.8711 90.2334C65.8711 88.9528 66.1901 87.9639 66.8281 87.2666C67.4707 86.5648 68.3571 86.2139 69.4873 86.2139C70.5674 86.2139 71.4082 86.5215 72.0098 87.1367C72.6113 87.752 72.9121 88.6019 72.9121 89.6865V90.6982H67.9834C68.0062 91.2907 68.1816 91.7533 68.5098 92.0859C68.8379 92.4186 69.2982 92.585 69.8906 92.585C70.3509 92.585 70.7861 92.5371 71.1963 92.4414C71.6064 92.3457 72.0348 92.193 72.4814 91.9834V93.5967C72.1169 93.779 71.7272 93.9134 71.3125 94C70.8978 94.0911 70.3919 94.1367 69.7949 94.1367ZM79.9395 91.7305C79.9395 92.5143 79.666 93.1113 79.1191 93.5215C78.5768 93.9316 77.7633 94.1367 76.6787 94.1367C76.1227 94.1367 75.6488 94.098 75.2568 94.0205C74.8649 93.9476 74.498 93.8382 74.1562 93.6924V91.9697C74.5436 92.152 74.9788 92.3047 75.4619 92.4277C75.9495 92.5508 76.3779 92.6123 76.7471 92.6123C77.5036 92.6123 77.8818 92.3936 77.8818 91.9561C77.8818 91.792 77.8317 91.6598 77.7314 91.5596C77.6312 91.4548 77.458 91.3385 77.2119 91.2109C76.9658 91.0788 76.6377 90.9261 76.2275 90.7529C75.6396 90.5068 75.2067 90.279 74.9287 90.0693C74.6553 89.8597 74.4548 89.6204 74.3271 89.3516C74.2041 89.0781 74.1426 88.7432 74.1426 88.3467C74.1426 87.6676 74.4046 87.1436 74.9287 86.7744C75.4574 86.4007 76.2048 86.2139 77.1709 86.2139C78.0915 86.2139 78.987 86.4144 79.8574 86.8154L79.2285 88.3193C78.8457 88.1553 78.488 88.0208 78.1553 87.916C77.8226 87.8112 77.4831 87.7588 77.1367 87.7588C76.5215 87.7588 76.2139 87.9251 76.2139 88.2578C76.2139 88.4447 76.3118 88.6064 76.5078 88.7432C76.7083 88.8799 77.1436 89.0827 77.8135 89.3516C78.4105 89.5931 78.848 89.8187 79.126 90.0283C79.404 90.238 79.609 90.4795 79.7412 90.7529C79.8734 91.0264 79.9395 91.3522 79.9395 91.7305ZM84.7861 92.4756C85.1507 92.4756 85.5882 92.3958 86.0986 92.2363V93.7881C85.5791 94.0205 84.9411 94.1367 84.1846 94.1367C83.3506 94.1367 82.7422 93.9271 82.3594 93.5078C81.9811 93.084 81.792 92.4505 81.792 91.6074V87.9229H80.7939V87.041L81.9424 86.3438L82.5439 84.7305H83.877V86.3574H86.0166V87.9229H83.877V91.6074C83.877 91.9036 83.959 92.1224 84.123 92.2637C84.2917 92.4049 84.5127 92.4756 84.7861 92.4756ZM89.3115 90.165C89.3115 90.9215 89.4346 91.4935 89.6807 91.8809C89.9313 92.2682 90.3369 92.4619 90.8975 92.4619C91.4535 92.4619 91.8522 92.2705 92.0938 91.8877C92.3398 91.5003 92.4629 90.9261 92.4629 90.165C92.4629 89.4085 92.3398 88.8411 92.0938 88.4629C91.8477 88.0846 91.4443 87.8955 90.8838 87.8955C90.3278 87.8955 89.9268 88.0846 89.6807 88.4629C89.4346 88.8366 89.3115 89.404 89.3115 90.165ZM94.5957 90.165C94.5957 91.4092 94.2676 92.3822 93.6113 93.084C92.9551 93.7858 92.0413 94.1367 90.8701 94.1367C90.1364 94.1367 89.4893 93.9772 88.9287 93.6582C88.3682 93.3346 87.9375 92.8721 87.6367 92.2705C87.3359 91.6689 87.1855 90.9671 87.1855 90.165C87.1855 88.9163 87.5114 87.9456 88.1631 87.2529C88.8148 86.5602 89.7308 86.2139 90.9111 86.2139C91.6449 86.2139 92.292 86.3734 92.8525 86.6924C93.4131 87.0114 93.8438 87.4694 94.1445 88.0664C94.4453 88.6634 94.5957 89.363 94.5957 90.165Z" fill="#333333"/>
</svg>
