<svg xmlns="http://www.w3.org/2000/svg" viewBox="0 0 76 51.81"><title>Asset 7</title><g id="Layer_2" data-name="Layer 2"><g id="Layer_1-2" data-name="Layer 1"><path d="M62.13,37.88a7,7,0,0,0-5,2,6.88,6.88,0,0,0,0,9.84,7.08,7.08,0,0,0,5,2,7,7,0,0,0,0-13.93Zm0,10.84a3.87,3.87,0,1,1,0-7.74,3.87,3.87,0,0,1,0,7.74Z"/><path d="M63.93,14.69a1.48,1.48,0,0,0-1-.41H55a1.55,1.55,0,0,0-1.54,1.55V28.52A1.55,1.55,0,0,0,55,30.07h12.6a1.56,1.56,0,0,0,1.55-1.55V20a1.56,1.56,0,0,0-.51-1.15ZM66,27H56.5V17.36h5.79L66,20.71Z"/><path d="M24.34,37.88a7,7,0,0,0-4.95,2,6.9,6.9,0,0,0-2.07,4.92,6.82,6.82,0,0,0,2.07,4.92,7.08,7.08,0,0,0,4.95,2,7,7,0,0,0,0-13.93Zm0,10.84a3.87,3.87,0,1,1,0-7.74,3.87,3.87,0,0,1,0,7.74Z"/><path d="M14,39.79H10.91V35.67a1.55,1.55,0,1,0-3.1,0v5.67a1.55,1.55,0,0,0,1.55,1.54H14a1.55,1.55,0,1,0,0-3.09Z"/><path d="M21.87,31.35a1.55,1.55,0,0,0-1.55-1.54H1.55a1.55,1.55,0,1,0,0,3.09H20.32a1.54,1.54,0,0,0,1.55-1.55Z"/><path d="M4.69,25.77l18.77.11A1.56,1.56,0,0,0,25,24.34a1.53,1.53,0,0,0-1.53-1.56L4.72,22.67h0a1.55,1.55,0,0,0,0,3.1Z"/><path d="M7.85,18.74H26.62a1.55,1.55,0,1,0,0-3.09H7.85a1.55,1.55,0,1,0,0,3.09Z"/><path d="M75.43,16.65,64.35,7.47a1.54,1.54,0,0,0-1-.35h-13V1.55A1.56,1.56,0,0,0,48.78,0H9.36A1.56,1.56,0,0,0,7.81,1.55V12.88a1.55,1.55,0,0,0,3.1,0V3.1H47.25V39.79H34.56a1.55,1.55,0,1,0,0,3.09H53.45a1.55,1.55,0,1,0,0-3.09H50.34V10.21H62.81L72.9,18.57l-.1,21.19H71.19a1.55,1.55,0,1,0,0,3.09h3.14a1.54,1.54,0,0,0,1.55-1.53L76,17.86a1.68,1.68,0,0,0-.57-1.21Z"/></g></g></svg>