<svg width="39" height="38" viewBox="0 0 39 38" fill="none" xmlns="http://www.w3.org/2000/svg">
<path d="M37.5037 24.1643H1.54578C1.20356 24.1643 0.925797 24.4406 0.925797 24.7826C0.925797 31.9411 6.76589 37.7655 13.945 37.7655H25.1044C32.283 37.7655 38.1237 31.9411 38.1237 24.7826C38.1237 24.4406 37.8466 24.1643 37.5037 24.1643ZM25.1044 36.529H13.945C7.65797 36.529 2.50543 31.5917 2.18182 25.4007H36.8676C36.544 31.5917 31.3915 36.529 25.1044 36.529Z" fill="black"/>
<path d="M32.5465 9.33043C32.5465 9.28529 32.5459 9.24015 32.5416 9.17154C32.4461 8.14653 31.7394 7.30447 30.8063 6.98857L31.5081 6.28873C32.7251 5.0999 32.8473 3.1982 31.7821 1.8554C30.6414 0.473047 28.5856 0.276407 27.1999 1.41336C27.1212 1.47828 27.0449 1.54689 26.9687 1.62297L26.2061 2.39453C25.8862 1.469 25.04 0.769168 23.9972 0.672731C22.624 0.597958 21.4616 1.64891 21.3878 3.01025C21.3853 3.05539 21.3847 3.10053 21.3847 3.14501V4.09279C21.0202 3.88195 20.598 3.7608 20.1473 3.76015C20.1026 3.76015 20.0567 3.76138 19.9879 3.76508C18.6624 3.8881 17.6426 5.02382 17.6649 6.34061V7.18144C17.2929 6.9669 16.8689 6.85192 16.4275 6.85127C16.3829 6.85127 16.3376 6.8525 16.2688 6.85619C14.9427 6.97922 13.9229 8.11494 13.9452 9.43179V18.6002C13.9452 18.9421 14.223 19.2185 14.5652 19.2185H25.1046C26.4722 19.2185 27.5844 18.1093 27.5838 16.7468C27.5838 16.2967 27.4629 15.8744 27.2509 15.5103H28.0884C29.4201 15.5468 30.559 14.515 30.6836 13.1691C30.7103 12.6658 30.5838 12.1898 30.3445 11.7855C30.9012 11.7237 31.4164 11.4782 31.8181 11.0788C32.2867 10.6127 32.5459 9.99194 32.5465 9.33043ZM30.9426 10.2034C30.7083 10.4358 30.3977 10.5638 30.066 10.5638C30.0654 10.5638 30.0648 10.5638 30.0641 10.5638H28.2043C27.8614 10.5638 27.5843 10.8408 27.5843 11.1821C27.5843 11.5233 27.8614 11.8003 28.2043 11.8003L28.2725 11.8022C28.9557 11.8387 29.4814 12.4223 29.4467 13.0788C29.3835 13.7601 28.8038 14.2875 28.0989 14.2733H25.1045C24.7616 14.2733 24.4845 14.5503 24.4845 14.8915C24.4845 15.2328 24.7616 15.5098 25.1045 15.5098C25.7883 15.5098 26.3445 16.0643 26.3445 16.7463C26.3445 17.4282 25.7883 17.9828 25.1045 17.9828H15.185V9.42129C15.1732 8.73689 15.7002 8.15146 16.3592 8.08958L16.4268 8.0877C17.1094 8.08828 17.6642 8.64226 17.6649 9.32232V9.32666C17.6649 9.66792 17.942 9.94491 18.2842 9.94491C18.2848 9.94491 18.2848 9.94491 18.2848 9.94491C18.6271 9.94491 18.9042 9.66858 18.9048 9.32732V9.32674V6.3301C18.8931 5.6457 19.42 5.06027 20.079 4.99839L20.146 4.99651C20.8292 4.99774 21.3841 5.55165 21.3848 6.23236V6.23606C21.3848 6.57732 21.6619 6.85431 22.0041 6.85431C22.0047 6.85431 22.0047 6.85431 22.0047 6.85431C22.3469 6.85431 22.6241 6.57797 22.6247 6.23671V6.23606V3.14494L22.6266 3.07633C22.6626 2.39562 23.2342 1.87141 23.9062 1.90539C24.5907 1.96908 25.117 2.55451 25.104 3.25065V3.76377C25.104 4.01417 25.2559 4.24045 25.489 4.33565C25.7203 4.43086 25.9893 4.37645 26.1654 4.19719L27.8473 2.49517C27.8931 2.45003 27.9403 2.40736 27.9893 2.36722C28.8473 1.66369 30.1188 1.78606 30.8182 2.63182C31.4803 3.46765 31.404 4.6596 30.6365 5.40957L29.006 7.03552C28.8287 7.2123 28.7754 7.47814 28.8715 7.70941C28.9669 7.94003 29.1938 8.09088 29.4443 8.09088H29.9589C29.9719 8.09088 29.9812 8.09088 29.9917 8.09088C30.6687 8.09088 31.244 8.61147 31.3047 9.26182L31.3066 9.32985C31.3059 9.65995 31.177 9.97027 30.9426 10.2034Z" fill="black"/>
<path d="M27.7664 4.5606L10.4078 21.8708L11.2845 22.7451L28.6432 5.43489L27.7664 4.5606Z" fill="black"/>
<path d="M25.1033 5.62097H23.8633V8.71216H25.1033V5.62097Z" fill="black"/>
<path d="M21.3834 8.71216H20.1435V12.4216H21.3834V8.71216Z" fill="black"/>
<path d="M17.6636 11.7971H16.4237V16.1247H17.6636V11.7971Z" fill="black"/>
<path d="M27.583 8.09393H24.4832V9.33036H27.583V8.09393Z" fill="black"/>
<path d="M24.4833 11.7971H20.7635V13.0336H24.4833V11.7971Z" fill="black"/>
<path d="M21.3834 15.5065H17.0436V16.743H21.3834V15.5065Z" fill="black"/>
<path d="M12.4974 3.52888C12.4969 3.52765 12.4955 3.52642 12.495 3.52519C11.6202 2.21884 9.84211 1.86396 8.53276 2.73631C8.49185 2.7629 8.45153 2.7913 8.40568 2.82535L8.18248 2.99475L7.968 2.84078C6.83346 1.78549 5.04981 1.82816 3.96983 2.94592C3.44104 3.49244 3.15709 4.21205 3.17133 4.97188C3.18557 5.73171 3.49495 6.44017 4.04242 6.96691C4.20175 7.12022 4.37904 7.25499 4.56998 7.36751L5.09202 7.77434V8.09089C5.09202 9.79538 6.4826 11.1821 8.19185 11.1821C9.90111 11.1821 11.2917 9.79472 11.291 8.09031V7.77376L11.8397 7.34657C13.0269 6.44821 13.3152 4.77096 12.4974 3.52888ZM11.0833 6.3672L10.2898 6.98546C10.1397 7.10232 10.0517 7.28223 10.0517 7.47264V8.09089C10.0517 9.11344 9.21719 9.94557 8.19178 9.94557C7.16637 9.94557 6.33191 9.11344 6.33191 8.09089V7.47264C6.33191 7.28223 6.2445 7.10232 6.09381 6.98546L5.30025 6.3672C5.27671 6.34866 5.25128 6.33199 5.22527 6.31714C5.10873 6.25099 5.00083 6.17064 4.90413 6.07724C4.59417 5.77924 4.41929 5.37864 4.41122 4.94956C4.40316 4.52049 4.56373 4.11373 4.86257 3.80457C5.17812 3.47816 5.60033 3.31369 6.02312 3.31369C6.42607 3.31369 6.82968 3.46266 7.14218 3.76378C7.16325 3.78356 7.18556 3.80276 7.20975 3.82L7.82973 4.26516C8.05046 4.42405 8.34988 4.42036 8.56691 4.25589L9.22039 3.76566C9.57996 3.52577 10.0108 3.44172 10.4349 3.52519C10.8577 3.60923 11.2229 3.85225 11.4628 4.20959C11.9228 4.91066 11.7591 5.85531 11.0833 6.3672Z" fill="black"/>
<path d="M15.8038 1.28714H14.5638V2.52357H15.8038V1.28714Z" fill="black"/>
<path d="M19.5235 21.0707H18.2836V22.3071H19.5235V21.0707Z" fill="black"/>
<path d="M34.4039 4.38141V5.61791C35.0878 5.61791 35.6439 6.17248 35.6439 6.85434C35.6439 7.53621 35.0878 8.09085 34.4039 8.09085V9.32728C35.7716 9.32728 36.8838 8.21815 36.8838 6.85434C36.8838 5.49054 35.7716 4.38141 34.4039 4.38141Z" fill="black"/>
<path d="M3.40442 9.94861H2.16453V11.1851H3.40442V9.94861Z" fill="black"/>
<path d="M2.16569 7.47565H0.925797V8.71215H2.16569V7.47565Z" fill="black"/>
<path d="M25.1044 20.4549C23.7368 20.4549 22.6246 21.564 22.6246 22.9278H23.8645C23.8645 22.2459 24.4207 21.6913 25.1044 21.6913C25.7883 21.6913 26.3444 22.2459 26.3444 22.9278H27.5843C27.5843 21.564 26.472 20.4549 25.1044 20.4549Z" fill="black"/>
<path d="M8.36543 14.8908H8.28732C8.01079 13.8255 7.03929 13.0361 5.88557 13.0361C4.73185 13.0361 3.7597 13.8255 3.48383 14.8908H3.40572C2.0381 14.8908 0.925865 15.9999 0.925865 17.3637C0.925865 18.7275 2.0381 19.8366 3.40572 19.8366H8.36543C9.73305 19.8366 10.8453 18.7275 10.8453 17.3637C10.8453 15.9999 9.73305 14.8908 8.36543 14.8908ZM8.36543 18.6008H3.40565C2.7218 18.6008 2.16568 18.0462 2.16568 17.3643C2.16568 16.6824 2.7218 16.1278 3.40565 16.1278H4.02563C4.36784 16.1278 4.64561 15.8508 4.64561 15.5096C4.64561 14.8276 5.20173 14.2732 5.88557 14.2732C6.56942 14.2732 7.12554 14.8277 7.12554 15.5096C7.12554 15.8508 7.4033 16.1278 7.74552 16.1278H8.3655C9.04935 16.1278 9.60546 16.6824 9.60546 17.3643C9.60532 18.0463 9.0492 18.6008 8.36543 18.6008Z" fill="black"/>
<path d="M7.12547 18.6002H4.64562C4.3034 18.6002 4.02563 18.8772 4.02563 19.2185V21.6914C4.02563 22.0333 4.3034 22.3097 4.64562 22.3097H7.12547C7.46768 22.3097 7.74545 22.0333 7.74545 21.6914V19.2185C7.74545 18.8772 7.46768 18.6002 7.12547 18.6002ZM6.50549 21.0732H5.2656V19.8367H6.50556V21.0732H6.50549Z" fill="black"/>
<path d="M33.784 16.7455C32.7585 16.7455 31.9241 17.5777 31.9241 18.6002C31.9241 19.6228 32.7585 20.4549 33.784 20.4549C34.8094 20.4549 35.6438 19.6228 35.6438 18.6002C35.6438 17.5777 34.8094 16.7455 33.784 16.7455ZM33.784 19.2191C33.4417 19.2191 33.164 18.9415 33.164 18.6008C33.164 18.2601 33.4417 17.9826 33.784 17.9826C34.1262 17.9826 34.4039 18.2595 34.4039 18.6008C34.4039 18.9421 34.1262 19.2191 33.784 19.2191Z" fill="black"/>
<path d="M33.784 14.2726C31.3915 14.2726 29.4442 16.2138 29.4442 18.6002C29.4442 20.9866 31.3915 22.9278 33.784 22.9278C36.1764 22.9278 38.1237 20.9866 38.1237 18.6002C38.1237 16.2138 36.1764 14.2726 33.784 14.2726ZM33.784 21.692C32.0747 21.692 30.6841 20.3047 30.6841 18.6008C30.6841 16.8963 32.0747 15.5096 33.784 15.5096C35.4932 15.5096 36.8838 16.8963 36.8838 18.6008C36.8838 20.3053 35.4932 21.692 33.784 21.692Z" fill="black"/>
</svg>
