<svg width="31" height="26" viewBox="0 0 31 26" fill="none" xmlns="http://www.w3.org/2000/svg">
<path d="M28.0937 0H2.90625C1.30115 0 0 1.24719 0 2.78571V23.2143C0 24.7528 1.30115 26 2.90625 26H28.0937C29.6988 26 31 24.7528 31 23.2143V2.78571C31 1.24719 29.6988 0 28.0937 0ZM28.9054 24.375L2.03896 24.317C1.94261 24.317 1.85021 24.2803 1.78208 24.215C1.71395 24.1497 1.67568 24.0611 1.67568 23.9688V2.03125C1.67568 1.9389 1.71395 1.85033 1.78208 1.78503C1.85021 1.71972 1.94261 1.68304 2.03896 1.68304L28.9054 1.625C29.0018 1.625 29.0942 1.66169 29.1623 1.72699C29.2304 1.79229 29.2687 1.88086 29.2687 1.97321V24.0268C29.2687 24.1191 29.2304 24.2077 29.1623 24.273C29.0942 24.3383 29.0018 24.375 28.9054 24.375ZM25.1875 18.6875V19.2679C25.1875 19.6525 24.8622 19.9643 24.4609 19.9643H12.3516C11.9503 19.9643 11.625 19.6525 11.625 19.2679V18.6875C11.625 18.3029 11.9503 17.9911 12.3516 17.9911H24.4609C24.8622 17.9911 25.1875 18.3029 25.1875 18.6875ZM25.1875 13.1161V13.6964C25.1875 14.081 24.8622 14.3929 24.4609 14.3929H12.3516C11.9503 14.3929 11.625 14.081 11.625 13.6964V13.1161C11.625 12.7315 11.9503 12.4196 12.3516 12.4196H24.4609C24.8622 12.4196 25.1875 12.7315 25.1875 13.1161ZM25.1875 7.54464V8.125C25.1875 8.5096 24.8622 8.82143 24.4609 8.82143H12.3516C11.9503 8.82143 11.625 8.5096 11.625 8.125V7.54464C11.625 7.16004 11.9503 6.84821 12.3516 6.84821H24.4609C24.8622 6.84821 25.1875 7.16004 25.1875 7.54464ZM9.80532 7.42857C9.80532 8.58244 8.82943 9.51786 7.62563 9.51786C6.42184 9.51786 5.44595 8.58244 5.44595 7.42857C5.44595 6.27471 6.42184 5.33929 7.62563 5.33929C8.82943 5.33929 9.80532 6.27471 9.80532 7.42857ZM9.80532 13C9.80532 14.1539 8.82943 15.0893 7.62563 15.0893C6.42184 15.0893 5.44595 14.1539 5.44595 13C5.44595 11.8461 6.42184 10.9107 7.62563 10.9107C8.82943 10.9107 9.80532 11.8461 9.80532 13ZM9.80532 18.5714C9.80532 19.7253 8.82943 20.6607 7.62563 20.6607C6.42184 20.6607 5.44595 19.7253 5.44595 18.5714C5.44595 17.4176 6.42184 16.4821 7.62563 16.4821C8.82943 16.4821 9.80532 17.4176 9.80532 18.5714Z" fill="#4C4C4C"/>
</svg>
