<svg width="50" height="42" viewBox="0 0 50 42" fill="none" xmlns="http://www.w3.org/2000/svg">
<path d="M34.642 34.0194C33.8417 33.3067 32.7679 32.6936 31.6177 32.2926C31.617 32.2923 31.6162 32.2921 31.6155 32.2918C31.6142 32.2914 31.613 32.2909 31.6118 32.2904C31.0809 32.1057 30.5355 31.9664 29.9885 31.8744C29.6655 31.4838 28.5944 30.3496 26.7397 29.9196C26.4315 29.8481 26.1125 29.92 25.864 30.1168C25.614 30.3149 25.4707 30.6109 25.4707 30.9292V32.3987C23.7287 33.1636 22.3476 34.4111 21.6051 35.177C21.4946 34.6202 21.2494 33.9162 20.7082 33.3763C19.6777 32.3483 18.019 32.391 17.9493 32.3933C17.7459 32.4001 17.5826 32.563 17.5759 32.7659C17.5736 32.8358 17.5312 34.49 18.5616 35.518C18.8173 35.773 19.1102 35.9601 19.4086 36.0976C19.1102 36.238 18.8172 36.427 18.5616 36.682C17.5312 37.7104 17.5736 39.3646 17.5759 39.4345C17.5826 39.6374 17.7459 39.8003 17.9493 39.8071C17.9559 39.8073 17.9768 39.8079 18.01 39.8079C18.3277 39.8079 19.7754 39.7547 20.7082 38.8237C21.2539 38.2792 21.4986 37.5592 21.6077 36.9918C22.1523 37.5526 23.0394 38.3714 24.1609 39.0715V40.4186C24.1609 40.7491 24.3133 41.0519 24.5789 41.2492C24.7616 41.3849 24.9767 41.4552 25.1964 41.4552C25.2966 41.4552 25.3978 41.4406 25.4973 41.4109C26.432 41.1324 27.1392 40.6242 27.467 40.3565C27.7829 40.4027 28.0975 40.4264 28.4049 40.4264C29.46 40.4264 30.5157 40.2493 31.5427 39.9002C31.5434 39.9 31.5441 39.8997 31.5448 39.8995C33.9398 39.0851 35.888 37.3735 35.888 36.0835C35.8882 35.4681 35.4456 34.7351 34.642 34.0194ZM19.1081 34.9729C18.5795 34.4455 18.4179 33.654 18.369 33.1833C18.8399 33.231 19.6304 33.3911 20.162 33.9215C20.6901 34.4484 20.8518 35.2251 20.9009 35.6862C20.4368 35.6475 19.6382 35.5018 19.1081 34.9729ZM20.1619 38.2786C19.6338 38.8057 18.8411 38.967 18.3692 39.0159C18.4183 38.5448 18.58 37.7542 19.1081 37.227C19.6385 36.6979 20.4354 36.5376 20.9019 36.4895C20.8541 36.9591 20.6937 37.7481 20.1619 38.2786ZM26.2434 30.9291C26.2434 30.8475 26.2803 30.7714 26.3446 30.7205C26.3814 30.6913 26.4591 30.646 26.5647 30.6705C27.5403 30.8967 28.2716 31.3527 28.7559 31.7472C28.6386 31.7428 28.5216 31.7405 28.405 31.7405C27.6999 31.7405 26.975 31.8621 26.2434 32.1022V30.9291ZM25.2762 40.6722C25.1947 40.6965 25.1087 40.6815 25.0405 40.6308C25.0007 40.6012 24.9337 40.5343 24.9337 40.4186V39.5114C25.444 39.7743 25.9535 39.9813 26.4583 40.1315C26.1484 40.3253 25.7459 40.5323 25.2762 40.6722ZM28.4051 39.6554C28.0832 39.6554 27.7511 39.6261 27.4185 39.5683C26.5493 39.4165 25.6502 39.0656 24.746 38.525C23.3217 37.6732 22.2492 36.5649 21.8175 36.0833C22.3672 35.4697 23.9568 33.8399 26.0019 33.0114C26.0044 33.0104 26.0069 33.0095 26.0093 33.0085C26.8257 32.6787 27.6317 32.5114 28.405 32.5114C28.8401 32.5114 29.2822 32.5451 29.7193 32.6115C30.0529 32.6621 30.3864 32.7325 30.7164 32.8213C29.9057 33.6799 29.391 34.9447 29.391 36.1697C29.391 37.2882 29.8879 38.4952 30.6698 39.358C29.9224 39.5553 29.1632 39.6554 28.4051 39.6554ZM31.4988 39.0979C30.6936 38.3737 30.1637 37.2239 30.1637 36.1698C30.1637 35.0167 30.7278 33.7821 31.5542 33.0895C33.766 33.9148 35.1155 35.3705 35.1155 36.0834C35.1155 36.8084 33.7452 38.2766 31.4988 39.0979Z" fill="#333333"/>
<path d="M32.9249 35.6116C32.7116 35.6116 32.5386 35.7842 32.5386 35.9971V36.1697C32.5386 36.3826 32.7116 36.5552 32.9249 36.5552C33.1383 36.5552 33.3113 36.3826 33.3113 36.1697V35.9971C33.3113 35.7842 33.1383 35.6116 32.9249 35.6116Z" fill="#333333"/>
<path d="M28.9241 33.4923C28.7694 33.3457 28.5249 33.3521 28.378 33.5064C28.3409 33.5453 28.3043 33.5861 28.2692 33.6277C28.1317 33.7905 28.1526 34.0337 28.3158 34.1708C28.3883 34.2318 28.4766 34.2615 28.5645 34.2615C28.6745 34.2615 28.7838 34.2149 28.8601 34.1244C28.8854 34.0945 28.9117 34.0651 28.9382 34.0373C29.0852 33.8829 29.0789 33.6389 28.9241 33.4923Z" fill="#333333"/>
<path d="M28.8796 38.2081C28.4501 37.7148 28.2038 36.9666 28.2038 36.1551C28.2038 35.7009 28.2835 35.254 28.4344 34.8626C28.5109 34.664 28.4116 34.441 28.2125 34.3645C28.0133 34.2881 27.7898 34.3872 27.7132 34.5859C27.5287 35.0646 27.4311 35.6072 27.4311 36.1551C27.4311 37.1495 27.7464 38.0821 28.2962 38.7136C28.3726 38.8014 28.48 38.8463 28.588 38.8463C28.6778 38.8463 28.7681 38.8152 28.8412 38.7519C29.0023 38.6123 29.0195 38.3688 28.8796 38.2081Z" fill="#333333"/>
<path d="M47.3685 25.6232C46.6946 25.0293 45.7904 24.5184 44.8218 24.1842C44.8212 24.184 44.8206 24.1838 44.8199 24.1836C44.8189 24.1832 44.8178 24.1828 44.8168 24.1824C44.3698 24.0285 43.9105 23.9124 43.4498 23.8358C43.1778 23.5102 42.2758 22.565 40.714 22.2068C40.4545 22.1472 40.1858 22.2071 39.9766 22.3711C39.7661 22.5361 39.6453 22.7828 39.6453 23.048V24.2727C38.1784 24.9101 37.0154 25.9496 36.3902 26.5879C36.2971 26.1239 36.0906 25.5373 35.6349 25.0873C34.7671 24.2306 33.3702 24.2662 33.3115 24.2682C33.1403 24.2738 33.0028 24.4095 32.9972 24.5786C32.9952 24.6369 32.9595 26.0154 33.8272 26.8721C34.0425 27.0846 34.2892 27.2405 34.5404 27.3551C34.2892 27.4721 34.0424 27.6296 33.8272 27.8421C32.9595 28.6991 32.9952 30.0775 32.9972 30.1358C33.0028 30.3049 33.1403 30.4407 33.3115 30.4463C33.3171 30.4465 33.3347 30.447 33.3627 30.447C33.6302 30.447 34.8493 30.4027 35.6349 29.6268C36.0944 29.1731 36.3005 28.573 36.3923 28.1002C36.8509 28.5676 37.598 29.2499 38.5424 29.8333V30.9559C38.5424 31.2313 38.6707 31.4836 38.8944 31.6481C39.0482 31.7611 39.2294 31.8197 39.4144 31.8197C39.4988 31.8197 39.584 31.8075 39.6678 31.7828C40.4549 31.5508 41.0504 31.1273 41.3265 30.9041C41.5924 30.9426 41.8574 30.9624 42.1163 30.9624C43.0048 30.9624 43.8938 30.8148 44.7587 30.5239C44.7592 30.5237 44.7598 30.5235 44.7604 30.5233C46.7772 29.8446 48.4178 28.4183 48.4178 27.3433C48.418 26.8305 48.0453 26.2196 47.3685 25.6232ZM34.2874 26.4178C33.8422 25.9783 33.7062 25.3187 33.665 24.9265C34.0615 24.9662 34.7272 25.0997 35.1749 25.5416C35.6196 25.9807 35.7558 26.6279 35.7971 27.0122C35.4063 26.98 34.7338 26.8586 34.2874 26.4178ZM35.1748 29.1725C34.73 29.6118 34.0626 29.7462 33.6651 29.7869C33.7065 29.3944 33.8427 28.7355 34.2874 28.2963C34.734 27.8553 35.4051 27.7217 35.7979 27.6817C35.7577 28.073 35.6226 28.7305 35.1748 29.1725ZM40.2961 23.048C40.2961 22.9799 40.3271 22.9166 40.3813 22.8741C40.4123 22.8498 40.4777 22.812 40.5667 22.8325C41.3882 23.0209 42.004 23.401 42.4119 23.7297C42.3131 23.726 42.2145 23.7241 42.1164 23.7241C41.5226 23.7241 40.9122 23.8255 40.2961 24.0255V23.048ZM39.4816 31.1672C39.4129 31.1875 39.3405 31.175 39.2831 31.1328C39.2495 31.1081 39.1932 31.0523 39.1932 30.9559V30.1999C39.6229 30.419 40.0519 30.5915 40.477 30.7167C40.2161 30.8782 39.8771 31.0506 39.4816 31.1672ZM42.1164 30.3199C41.8453 30.3199 41.5657 30.2955 41.2856 30.2473C40.5537 30.1208 39.7965 29.8284 39.0351 29.3779C37.8356 28.6681 36.9325 27.7445 36.569 27.3432C37.0319 26.8319 38.3705 25.4737 40.0927 24.7832C40.0948 24.7824 40.0969 24.7816 40.099 24.7808C40.7864 24.506 41.4652 24.3666 42.1164 24.3666C42.4827 24.3666 42.855 24.3946 43.2231 24.45C43.5041 24.4921 43.7849 24.5508 44.0628 24.6248C43.3801 25.3403 42.9467 26.3943 42.9467 27.4151C42.9467 28.3472 43.3651 29.3531 44.0235 30.0721C43.3941 30.2365 42.7548 30.3199 42.1164 30.3199ZM44.7217 29.8553C44.0436 29.2518 43.5974 28.2937 43.5974 27.4152C43.5974 26.4543 44.0724 25.4255 44.7683 24.8483C46.6309 25.5361 47.7673 26.7492 47.7673 27.3432C47.7673 27.9474 46.6133 29.1709 44.7217 29.8553Z" fill="#333333"/>
<path d="M45.9226 26.95C45.7429 26.95 45.5973 27.0939 45.5973 27.2713V27.4152C45.5973 27.5925 45.7429 27.7364 45.9226 27.7364C46.1023 27.7364 46.248 27.5925 46.248 27.4152V27.2713C46.2479 27.0939 46.1023 26.95 45.9226 26.95Z" fill="#333333"/>
<path d="M42.5535 25.184C42.4232 25.0618 42.2173 25.0671 42.0936 25.1957C42.0624 25.2282 42.0316 25.2622 42.002 25.2968C41.8862 25.4325 41.9038 25.6351 42.0412 25.7494C42.1023 25.8002 42.1767 25.825 42.2507 25.825C42.3433 25.825 42.4353 25.7861 42.4996 25.7107C42.5209 25.6858 42.5431 25.6613 42.5654 25.6381C42.6892 25.5095 42.6838 25.3062 42.5535 25.184Z" fill="#333333"/>
<path d="M42.516 29.1138C42.1544 28.7027 41.9469 28.0792 41.9469 27.403C41.9469 27.0245 42.0141 26.652 42.1411 26.3259C42.2056 26.1603 42.1219 25.9745 41.9542 25.9108C41.7865 25.8471 41.5983 25.9297 41.5338 26.0953C41.3784 26.4942 41.2963 26.9464 41.2963 27.4029C41.2963 28.2317 41.5618 29.0088 42.0247 29.5351C42.0891 29.6082 42.1795 29.6457 42.2705 29.6457C42.3461 29.6457 42.4221 29.6198 42.4837 29.567C42.6193 29.4506 42.6338 29.2477 42.516 29.1138Z" fill="#333333"/>
<path d="M35.1853 20.7087C33.6529 20.7087 32.3131 20.329 31.3936 19.4098C27.9817 15.9979 32.0008 6.78351 35.3126 3.4718C38.6272 0.157194 44.0218 0.158158 47.3374 3.4718C50.652 6.78543 50.652 12.1784 47.3374 15.493C44.9172 17.9125 39.3433 20.7087 35.1853 20.7087ZM32.0751 18.7286C34.9396 21.5903 43.6093 17.8556 46.655 14.8118C49.5937 11.873 49.5937 7.09184 46.655 4.15302C43.7162 1.21517 38.9337 1.21421 35.993 4.15302C32.9493 7.19879 29.2134 15.8669 32.0751 18.7286Z" fill="#333333"/>
<path d="M28.6149 28.4055C27.8005 28.4055 26.987 28.0962 26.3663 27.4756C25.7947 26.9033 25.4728 26.1537 25.4448 25.3568C24.6478 25.3289 23.8969 25.008 23.3244 24.4356C22.7249 23.8354 22.3943 23.0375 22.3943 22.1877C22.3943 21.3388 22.7249 20.541 23.3254 19.9407C24.4993 18.7681 26.5282 18.7353 27.7378 19.8588L30.4664 17.131C30.6544 16.9431 30.9599 16.9431 31.1478 17.131C31.3358 17.3189 31.3358 17.6243 31.1478 17.8122L28.0549 20.9052C27.9556 21.0035 27.8188 21.0555 27.6809 21.0459C27.5412 21.0363 27.414 20.9669 27.3301 20.8561C27.2472 20.7462 27.201 20.6807 27.1431 20.6239C26.3046 19.7846 24.8473 19.7856 24.0087 20.6229C23.5885 21.0411 23.3581 21.597 23.3581 22.1887C23.3581 22.7793 23.5885 23.3353 24.0068 23.7544C24.4993 24.2468 25.1875 24.4713 25.8853 24.3721C26.0347 24.3518 26.187 24.401 26.294 24.5089C26.401 24.6158 26.4521 24.7671 26.4308 24.9174C26.3316 25.6198 26.5561 26.303 27.0487 26.7954C27.9123 27.6587 29.3185 27.6587 30.1821 26.7954C31.0457 25.932 31.0457 24.5272 30.1821 23.6629C30.1243 23.6051 30.0606 23.5598 29.998 23.5126C29.8862 23.4278 29.7927 23.2823 29.7831 23.1426C29.7734 23.0029 29.8004 22.8487 29.8997 22.7504L32.9926 19.6574C33.1806 19.4695 33.4861 19.4695 33.6741 19.6574C33.862 19.8453 33.862 20.1508 33.6741 20.3386L30.9454 23.0664C32.103 24.3114 32.0751 26.2654 30.8635 27.4766C30.2438 28.0952 29.4293 28.4055 28.6149 28.4055Z" fill="#333333"/>
<path d="M46.4795 11.133C46.4015 11.133 46.3224 11.1137 46.2492 11.0732C46.0159 10.947 45.9302 10.656 46.0555 10.4228C46.0863 10.3621 46.7292 9.09122 45.7827 7.37803C45.6545 7.14581 45.7393 6.85193 45.9716 6.72378C46.2049 6.59274 46.4979 6.67946 46.627 6.91264C47.8405 9.11145 46.9422 10.8092 46.9027 10.8805C46.8159 11.0424 46.6511 11.133 46.4795 11.133Z" fill="#333333"/>
<path d="M6.0636 28.0868C7.47482 29.901 9.77574 32.1275 12.7274 32.4338C14.8928 32.6589 17.0897 31.8282 19.2571 29.9663C21.9669 27.6379 22.2514 24.7722 20.0564 21.897C19.3758 21.0052 19.2112 19.8658 19.617 18.8488C20.0233 17.8302 20.9266 17.1273 22.029 16.9614C23.7881 16.7009 24.979 15.9455 25.4748 14.7749C25.8541 13.8783 25.9763 12.3381 24.406 10.0931L24.3783 10.0571C24.2784 9.9397 21.8816 7.18378 17.702 7.00167C16.7991 6.96216 15.9235 7.13004 15.0769 7.29257L14.9431 7.31816C14.6606 7.37208 14.1759 7.47605 13.5586 7.65256C12.0179 8.09314 9.64961 8.98561 7.52875 10.6805C4.43886 13.1493 2.95914 16.3953 3.13105 20.3287C3.2516 23.0923 4.26594 25.7755 6.0636 28.0868ZM4.06063 20.2923C3.90233 16.6752 5.26437 13.6887 8.1091 11.416C10.9138 9.17562 14.1841 8.41907 15.1207 8.2396L15.255 8.21388C16.086 8.05434 16.8708 7.90409 17.666 7.93879C21.2781 8.09625 23.4727 10.4429 23.6613 10.6525C24.6816 12.1193 25.0213 13.4502 24.6185 14.4034C24.2557 15.2597 23.3118 15.8224 21.8901 16.0333C20.4531 16.2446 19.2833 17.1653 18.7532 18.495C18.2237 19.8232 18.4362 21.3076 19.3204 22.4662C21.2202 24.9553 20.9952 27.2379 18.6516 29.2512C16.6837 30.9413 14.7209 31.6983 12.8183 31.501C10.1936 31.2286 8.09457 29.1806 6.79521 27.5106C5.11794 25.3547 4.17276 22.8592 4.06063 20.2923Z" fill="#333333"/>
<path d="M12.6706 23.9124C11.4383 24.2648 10.7253 25.5634 11.0812 26.8072C11.4371 28.051 12.7292 28.7763 13.9615 28.4239C15.1938 28.0715 15.9068 26.7729 15.5509 25.5291C15.195 24.2853 13.9029 23.56 12.6706 23.9124ZM13.7033 27.5216C12.964 27.733 12.1887 27.2978 11.9751 26.5516C11.7616 25.8054 12.1895 25.0261 12.9288 24.8147C13.6681 24.6033 14.4435 25.0385 14.657 25.7847C14.8705 26.5309 14.4426 27.3102 13.7033 27.5216Z" fill="#333333"/>
<path d="M5.56324 23.281C5.98919 24.5551 6.63828 25.7775 7.51043 26.8991C10.8311 31.1668 14.4378 31.7227 18.1956 28.4972C18.9477 27.8507 21.236 25.8844 18.7694 22.6531C17.8712 21.476 17.6138 20.0083 18.0631 18.628C18.5715 17.0638 19.9042 15.9404 21.5459 15.6988C22.7691 15.5208 23.5852 15.0322 23.827 14.3359C24.0835 13.5983 23.7753 12.5361 22.9589 11.3459L22.9153 11.2915C22.5665 10.9158 20.6684 9.0359 17.5463 8.89937C16.8368 8.86848 16.1112 9.00765 15.3438 9.15484L15.2141 9.17973C14.8253 9.25383 14.4136 9.353 13.9899 9.47416C5.54666 11.8886 4.88259 17.8146 4.98924 20.2508C5.03297 21.252 5.2232 22.2396 5.53605 23.1995C5.54149 23.2287 5.55224 23.2544 5.56324 23.281ZM17.5896 27.7822C16.6066 28.627 15.6393 29.1892 14.715 29.4535C12.5235 30.0801 10.3454 29.0265 8.24159 26.323C7.61278 25.5144 7.11277 24.6491 6.73351 23.7512C8.89865 23.7489 11.9373 20.9624 12.441 20.4855C14.8688 18.863 16.459 19.7392 16.9232 20.0774C16.9448 21.1923 17.3172 22.284 18.0334 23.2223C19.7301 25.4463 18.7614 26.7756 17.5896 27.7822ZM17.1781 18.332C17.1006 18.5698 17.0451 18.8102 17.0019 19.051C16.3411 18.7172 15.2415 18.3909 13.8098 18.8003C13.2225 18.9682 12.5794 19.2605 11.8887 19.7264C11.8672 19.7408 11.8472 19.7568 11.8282 19.775C10.3324 21.2042 7.6031 23.2009 6.36979 22.7639C6.11175 21.9313 5.95635 21.0773 5.91824 20.214C5.91755 20.1947 5.91723 20.1733 5.91641 20.1536C6.96904 20.1517 9.40932 19.7541 12.7658 16.7537C13.9137 15.7275 15.0282 15.2727 16.0769 15.4008C17.091 15.5247 17.8247 16.1743 18.1769 16.5568C17.7408 17.069 17.395 17.6652 17.1781 18.332ZM15.3914 10.1017L15.5216 10.0767C16.2352 9.93952 16.909 9.81029 17.5107 9.83637C20.2368 9.95584 21.9374 11.6155 22.2145 11.9062C22.9306 12.9607 23.0637 13.6893 22.9485 14.022C22.8332 14.3541 22.2387 14.649 21.4067 14.7713C20.4787 14.9078 19.6376 15.2855 18.9343 15.8341C18.8655 15.6951 18.7899 15.5372 18.7127 15.3655C18.0358 13.8616 16.7635 12.6968 15.2222 12.1687C14.1192 11.7916 13.3322 11.3919 13.116 10.7427C13.477 10.6136 13.8507 10.4901 14.2481 10.3765C14.6451 10.2634 15.0301 10.1709 15.3914 10.1017ZM12.2451 11.079C12.6669 12.2811 14.1021 12.7746 14.927 13.057C15.8688 13.3792 16.6909 13.9845 17.2889 14.7765C16.9635 14.6328 16.5986 14.5219 16.1968 14.4714C14.8681 14.3042 13.5056 14.8354 12.146 16.0509C8.99284 18.8697 6.77407 19.205 5.9303 19.2135C6.08247 16.9366 7.17127 13.2318 12.2451 11.079Z" fill="#333333"/>
</svg>
