<svg width="39" height="33" viewBox="0 0 39 33" fill="none" xmlns="http://www.w3.org/2000/svg">
<path d="M34.9529 24.8493C36.7785 24.5617 38.1216 23.0201 38.1237 21.2097V17.5192C38.1237 17.1795 37.8424 16.9041 37.4954 16.9041H19.8938C19.5468 16.9041 19.2655 17.1795 19.2655 17.5192V23.055H18.0197V8.29276C18.0198 8.20965 18.0025 8.12738 17.9688 8.05103L16.1349 3.86409V0.911633C16.1349 0.571948 15.8536 0.296539 15.5067 0.296539H4.1982C3.85125 0.296539 3.56995 0.571948 3.56995 0.911633V3.86409L1.73609 8.05288C1.70264 8.12861 1.68536 8.21026 1.6852 8.29276V29.4231C0.822617 30.0863 0.672543 31.3086 1.34995 32.1531C1.72706 32.6233 2.30411 32.8974 2.91469 32.8965H33.7259C33.9652 32.8978 34.1844 32.7659 34.2914 32.5564L35.3707 30.4362H38.1237V29.206H32.4462C33.8742 28.1668 34.7852 26.5835 34.9529 24.8493ZM34.9824 18.1343H36.8672V21.2097C36.8629 22.3282 36.0886 23.3031 34.9824 23.5828V18.1343ZM16.439 7.67767H14.5744L15.5067 5.54883L16.439 7.67767ZM16.7632 8.90786V23.055H14.2502V8.90786H16.7632ZM4.82645 1.52673H14.8784V3.37201H4.82645V1.52673ZM4.61222 4.6022H14.5543L13.2079 7.67767H3.26588L4.61222 4.6022ZM2.9417 8.90786H12.9937V23.055H11.6587C11.0844 23.0549 10.5381 23.2978 10.1603 23.7212C9.99946 23.9052 9.87538 24.1171 9.79465 24.3461L6.73759 25.2011C5.95958 25.4247 5.39698 26.0869 5.31397 26.8766L2.9417 28.5355V8.90786ZM2.91469 31.6663C2.5986 31.6667 2.31809 31.4682 2.21922 31.1743C2.1161 30.8753 2.22542 30.5456 2.48811 30.363L5.49679 28.2587L6.19289 31.6663H2.91469ZM7.47389 31.6663L6.56482 27.2143C6.4921 26.8479 6.71654 26.4877 7.0825 26.3833L9.73873 25.6403L10.5718 31.6663H7.47389ZM11.8402 31.6663L10.9318 25.0978C10.8784 24.7048 11.1604 24.3438 11.5618 24.2915C11.5939 24.2874 11.6262 24.2852 11.6587 24.2852H19.2661C19.2715 26.2251 20.2113 28.049 21.8018 29.206H16.7632V30.4362H19.5162L20.1444 31.6663H11.8402ZM33.9659 30.4362L33.3377 31.6663H21.5492L20.9209 30.4362H33.9659ZM28.6893 29.206H25.5587C22.7784 29.2026 20.5255 26.9968 20.522 24.2748V18.1343H33.7259V24.2748C33.7229 26.9969 31.4696 29.2029 28.6893 29.206Z" fill="#333333"/>
<path d="M26.1763 26.7456C24.4423 26.7436 23.037 25.3678 23.035 23.6701V23.055H21.7785V23.6701C21.7816 26.0468 23.7488 27.9727 26.1763 27.9758H26.8045V26.7456H26.1763Z" fill="#333333"/>
<path d="M23.035 20.5947H21.7785V21.8249H23.035V20.5947Z" fill="#333333"/>
<path d="M34.0401 9.52296H26.5011C25.9806 9.52296 25.5587 9.10984 25.5587 8.60032C25.5587 8.09079 25.9806 7.67767 26.5011 7.67767H29.3282C31.0622 7.67567 32.4674 6.29986 32.4694 4.6022H31.2129C31.2129 5.62134 30.3691 6.44749 29.3282 6.44749H26.5011C25.2867 6.44749 24.3022 7.41134 24.3022 8.60032C24.3022 9.78929 25.2867 10.7531 26.5011 10.7531H34.0401C34.5605 10.7531 34.9824 11.1663 34.9824 11.6758C34.9824 12.1853 34.5605 12.5984 34.0401 12.5984H24.9304C23.1965 12.6004 21.7912 13.9762 21.7892 15.6739H23.0457C23.0457 14.6548 23.8895 13.8286 24.9304 13.8286H34.0401C35.2545 13.8286 36.2389 12.8648 36.2389 11.6758C36.2389 10.4868 35.2545 9.52296 34.0401 9.52296Z" fill="#333333"/>
<path d="M7.9677 11.9834C6.57982 11.9834 5.4547 13.0849 5.4547 14.4437C5.4547 15.8026 6.57982 16.9041 7.9677 16.9041C9.35558 16.9041 10.4807 15.8026 10.4807 14.4437C10.4807 13.0849 9.35558 11.9834 7.9677 11.9834ZM7.9677 15.6739C7.27372 15.6739 6.7112 15.1232 6.7112 14.4437C6.7112 13.7643 7.27372 13.2136 7.9677 13.2136C8.66168 13.2136 9.2242 13.7643 9.2242 14.4437C9.2242 15.1232 8.66168 15.6739 7.9677 15.6739Z" fill="#333333"/>
<path d="M10.4807 18.1343H5.4547V19.3645H10.4807V18.1343Z" fill="#333333"/>
<path d="M10.4807 20.5947H5.4547V21.8249H10.4807V20.5947Z" fill="#333333"/>
</svg>
