<svg width="33" height="32" viewBox="0 0 33 32" fill="none" xmlns="http://www.w3.org/2000/svg">
<path d="M11.8248 6.51279C11.4358 6.51279 11.0577 6.55195 10.6993 6.62905L10.9141 7.62159C11.2016 7.55962 11.5081 7.52814 11.8248 7.52814V6.51279Z" fill="#4C4C4C"/>
<path d="M6.75357 10.4351L7.73292 10.7138C7.73864 10.6949 8.30213 8.7847 10.0155 7.9337L9.56112 7.02444C7.45105 8.07301 6.78141 10.3387 6.75357 10.4351Z" fill="#4C4C4C"/>
<path d="M16.8324 14.8327C17.6897 14.3441 18.6101 13.9752 19.5691 13.736L20.0931 13.6056L20.0889 13.5888C20.2171 13.6046 20.3454 13.6202 20.4789 13.6202C21.017 13.6202 21.5144 13.4846 21.9255 13.2568L21.9287 13.2623C22.3257 13.0441 22.626 12.7415 22.8119 12.3962C22.8169 12.3865 22.8226 12.3773 22.8275 12.3679C22.8852 12.2566 22.93 12.1413 22.962 12.0231C22.9677 12.0023 22.9717 11.9815 22.9762 11.9606C23.0053 11.8389 23.0242 11.7155 23.0242 11.5895C23.0242 11.0581 22.7614 10.5777 22.3411 10.2152C22.6637 9.74475 22.7778 9.20287 22.6424 8.69891C22.5044 8.18554 22.1256 7.78966 21.6257 7.54797C21.8156 7.0098 21.7856 6.458 21.5233 6.00511C21.2658 5.5604 20.8015 5.26244 20.2427 5.15486C20.286 4.5867 20.114 4.06117 19.7438 3.69157C19.3665 3.31602 18.8401 3.16159 18.2863 3.20174C18.1809 2.64176 17.8781 2.17821 17.4245 1.91669C16.9634 1.6512 16.4146 1.63806 15.8896 1.81977C15.6428 1.30565 15.2299 0.93654 14.7233 0.801441C14.2083 0.664359 13.6751 0.793261 13.2155 1.10411C12.8434 0.671052 12.3485 0.420685 11.8248 0.420685C11.2919 0.420685 10.8102 0.682703 10.4468 1.10188C9.97498 0.780123 9.43211 0.666342 8.92628 0.801441C8.4115 0.939019 8.01455 1.31631 7.77219 1.81481C7.23256 1.62542 6.67875 1.65542 6.22512 1.91669C5.7792 2.17375 5.48042 2.6373 5.37254 3.19406C4.80233 3.15093 4.27587 3.32247 3.90526 3.69157C3.52769 4.06935 3.37234 4.59686 3.41459 5.15213C2.85458 5.26145 2.38727 5.55371 2.12553 6.00511C1.85932 6.46569 1.84615 7.01228 2.02835 7.53582C1.51282 7.78198 1.14271 8.19372 1.00724 8.69891C0.869285 9.21204 0.998539 9.74426 1.31074 10.2026C0.876493 10.5737 0.625443 11.0672 0.625443 11.5895C0.625443 12.7095 1.76735 13.6202 3.17075 13.6202C3.30423 13.6202 3.43249 13.6046 3.56075 13.5888L3.55653 13.6056L4.08 13.7355C5.03947 13.9752 5.9599 14.3441 6.81721 14.8327C8.33967 15.7003 10.0722 16.1586 11.8248 16.1586C13.5774 16.1586 15.3099 15.7003 16.8324 14.8327ZM19.0871 11.9961C19.0769 11.9815 19.0682 11.9636 19.0586 11.9475C19.0357 11.9083 19.0168 11.8687 19.0016 11.8278C18.9944 11.8094 18.9867 11.7911 18.9812 11.7717C18.9634 11.7125 18.9517 11.652 18.9517 11.5895C18.9517 11.0392 19.6511 10.5742 20.4789 10.5742C21.3066 10.5742 22.006 11.0392 22.006 11.5895C22.006 11.6612 21.9929 11.7321 21.9695 11.8012C21.9623 11.8231 21.9486 11.8439 21.9389 11.8652C21.9185 11.9108 21.8972 11.9567 21.8671 12.0003C21.8507 12.0241 21.8288 12.0464 21.8102 12.0692C21.7774 12.1084 21.7433 12.147 21.703 12.183C21.6792 12.2043 21.6528 12.2246 21.6262 12.245C21.582 12.2789 21.5348 12.3114 21.4833 12.3419C21.2119 12.5028 20.8611 12.6049 20.4789 12.6049C19.8674 12.6049 19.3285 12.3506 19.0871 11.9961ZM21.4445 9.71278C21.1463 9.61461 20.8209 9.55884 20.4789 9.55884C19.8639 9.55884 19.3071 9.74054 18.8667 10.0316C18.7991 9.95695 18.7394 9.86498 18.7088 9.75021C18.5664 9.21874 19.1212 8.5891 19.9208 8.37492C20.7217 8.16025 21.5169 8.4302 21.6593 8.96143C21.7224 9.19692 21.6384 9.46687 21.4445 9.71278ZM20.6417 6.51279C20.7645 6.72399 20.7533 7.00633 20.6295 7.29364C20.316 7.27579 19.9872 7.30578 19.6573 7.39403C19.0638 7.55293 18.5724 7.87245 18.2226 8.26685C18.1381 8.21206 18.0568 8.13844 17.9972 8.03581C17.8326 7.75149 17.9286 7.4275 18.0007 7.25968C18.1443 6.92403 18.4396 6.60872 18.8107 6.39554C19.1818 6.18186 19.5997 6.0827 19.9663 6.12807C20.148 6.14938 20.4774 6.22846 20.6417 6.51279ZM19.024 4.40946C19.1965 4.58149 19.2596 4.85665 19.2149 5.16551C18.9027 5.23145 18.5932 5.34771 18.3017 5.51578C17.7839 5.81374 17.3802 6.24209 17.1364 6.72696C17.0427 6.69598 16.947 6.6459 16.8645 6.5636C16.474 6.17417 16.639 5.35217 17.2244 4.7684C17.8098 4.18561 18.6335 4.01953 19.024 4.40946ZM16.9154 2.79669C17.1272 2.91841 17.2589 3.16828 17.2962 3.47888C17.0156 3.61993 16.7464 3.80981 16.5045 4.05101C16.0698 4.48457 15.8051 5.00612 15.6997 5.52223C15.5995 5.51727 15.4916 5.49446 15.3887 5.43447C15.1036 5.27062 15.0243 4.94142 15.0025 4.76022C14.9585 4.3978 15.0564 3.97788 15.2707 3.60778C15.6835 2.89362 16.4354 2.51931 16.9154 2.79669ZM14.4601 1.78234C14.6965 1.8453 14.8884 2.05278 15.0049 2.34331C14.7708 2.55203 14.5595 2.80463 14.389 3.10011C14.0902 3.61646 13.9553 4.18908 13.9873 4.73097C13.8901 4.75055 13.7823 4.75526 13.6702 4.72527C13.1372 4.58273 12.8678 3.788 13.0818 2.99104C13.2956 2.19259 13.9257 1.64153 14.4601 1.78234ZM11.8248 1.43604C12.0731 1.43604 12.3095 1.58427 12.4967 1.83712C12.3247 2.09914 12.1862 2.39809 12.0977 2.72753C11.9389 3.31949 11.971 3.90327 12.1385 4.40227C12.0488 4.44862 11.9439 4.48209 11.8248 4.48209C11.273 4.48209 10.8067 3.78453 10.8067 2.95906C10.8067 2.13359 11.273 1.43604 11.8248 1.43604ZM9.18951 1.78234C9.42565 1.71987 9.69634 1.80365 9.94291 1.99651C9.84448 2.29348 9.78856 2.61797 9.78856 2.95906C9.78856 3.57234 9.97075 4.12761 10.2626 4.56686C10.1878 4.63429 10.0955 4.69378 9.98045 4.72427C9.44554 4.86383 8.81617 4.31303 8.60141 3.51557C8.38764 2.71836 8.65634 1.92438 9.18951 1.78234ZM6.34791 3.4707C6.36979 3.289 6.44908 2.96055 6.73419 2.79669C6.94646 2.67424 7.22958 2.68539 7.51717 2.80884C7.49927 3.12143 7.52935 3.44889 7.61784 3.77833C7.77717 4.37029 8.09284 4.86854 8.48831 5.21732C8.43388 5.29838 8.36105 5.37672 8.26137 5.43348C7.97627 5.59734 7.65089 5.5014 7.48311 5.43001C7.14655 5.28673 6.83038 4.99224 6.61661 4.62214C6.40235 4.25304 6.30392 3.83336 6.34791 3.4707ZM4.62511 4.40995C4.79761 4.23841 5.07302 4.17545 5.38274 4.21957C5.44885 4.53092 5.56593 4.83954 5.73396 5.13031C6.03273 5.64667 6.46225 6.04924 6.94845 6.29241C6.91738 6.38587 6.86717 6.48131 6.78464 6.5636C6.39415 6.95353 5.5699 6.78844 4.98453 6.20466C4.40016 5.62089 4.23561 4.79889 4.62511 4.40995ZM3.00794 6.51279C3.12949 6.30258 3.38402 6.1645 3.6905 6.13005C3.83194 6.41066 4.02283 6.68086 4.26568 6.92255C4.70042 7.3561 5.2234 7.62754 5.74092 7.73265C5.73495 7.83081 5.71109 7.93517 5.65243 8.03581C5.48788 8.32014 5.15803 8.39922 4.97633 8.42103C4.61144 8.4654 4.19136 8.36774 3.82075 8.15356C3.10414 7.74083 2.73203 6.98898 3.00794 6.51279ZM1.99081 8.96143C2.05395 8.72569 2.262 8.53382 2.55332 8.41806C2.76261 8.65157 3.0159 8.86227 3.31219 9.03282C3.78272 9.30351 4.30048 9.44655 4.79811 9.44655C4.84907 9.44655 4.89853 9.4406 4.94849 9.43762C4.96713 9.53306 4.97086 9.63915 4.94128 9.74922C4.79811 10.2812 4.00195 10.5504 3.20232 10.336C2.40268 10.1228 1.84764 9.4929 1.99081 8.96143ZM1.64357 11.5895C1.64357 11.3419 1.79221 11.1067 2.04575 10.9195C2.30848 11.091 2.60825 11.2291 2.93859 11.3174C3.21052 11.3905 3.48171 11.4244 3.74394 11.4244C4.0544 11.4244 4.3487 11.3712 4.62014 11.2804C4.66538 11.3692 4.69794 11.4728 4.69794 11.5895C4.69794 12.1399 3.99847 12.6049 3.17075 12.6049C2.34303 12.6049 1.64357 12.1399 1.64357 11.5895ZM5.04195 12.9547C5.45656 12.5937 5.71606 12.117 5.71606 11.5895C5.71606 11.296 5.63403 11.0144 5.48738 10.7539C5.6922 10.5457 5.8473 10.2985 5.92486 10.0127C6.00017 9.73087 5.99445 9.4396 5.92162 9.1528C6.17715 9.00035 6.38893 8.79534 6.53409 8.54448C6.68223 8.29015 6.75258 8.00433 6.75556 7.70488C7.03669 7.62655 7.29569 7.4917 7.50548 7.28248C7.71154 7.07673 7.85323 6.82091 7.93451 6.53559C8.23229 6.53113 8.51839 6.459 8.77043 6.31423C9.02496 6.16797 9.22854 5.95628 9.38141 5.69996C9.52483 5.73665 9.66999 5.76193 9.81664 5.76193C9.95907 5.76193 10.1027 5.74359 10.2442 5.70616C10.5273 5.63055 10.7781 5.4786 10.9919 5.27112C11.2471 5.41365 11.5275 5.49744 11.8248 5.49744C12.1181 5.49744 12.4 5.41563 12.6612 5.27062C12.87 5.47463 13.1193 5.62832 13.4064 5.70566C13.5496 5.74359 13.695 5.76243 13.8412 5.76243C13.9843 5.76243 14.1283 5.74359 14.2709 5.70765C14.4236 5.96049 14.6281 6.16921 14.8787 6.31324C15.1332 6.46048 15.4183 6.53411 15.7176 6.53807C15.7964 6.81794 15.9351 7.07376 16.1441 7.28248C16.3504 7.48798 16.6065 7.62928 16.8926 7.71034C16.897 8.00731 16.9694 8.29263 17.115 8.54398C17.2617 8.79733 17.4735 9.00035 17.73 9.1528C17.6571 9.43539 17.6479 9.7274 17.7248 10.0142C17.8006 10.2966 17.9529 10.5467 18.161 10.7601C18.0176 11.0134 17.9335 11.2931 17.9335 11.5895C17.9335 11.7179 17.9529 11.8434 17.9815 11.9668C17.9885 11.9966 17.9987 12.0256 18.0074 12.0551C18.036 12.1525 18.0725 12.2474 18.1182 12.3404C18.1294 12.3632 18.1409 12.3855 18.153 12.4078C18.2124 12.5161 18.2823 12.6205 18.3658 12.7202C18.3673 12.7216 18.3683 12.7236 18.3698 12.7251C18.3852 12.7435 18.3964 12.7628 18.412 12.7806L18.4197 12.7735C18.4772 12.8369 18.5408 12.8969 18.6072 12.9547C17.814 13.206 17.0494 13.5384 16.3271 13.9507C13.5886 15.5104 10.06 15.5104 7.32204 13.9507C6.59971 13.5389 5.83512 13.2065 5.04195 12.9547Z" fill="#4C4C4C"/>
<path d="M20.0772 23.3595C20.3648 23.2975 20.6713 23.2661 20.9879 23.2661V22.2507C20.5989 22.2507 20.2209 22.2899 19.8624 22.367L20.0772 23.3595Z" fill="#4C4C4C"/>
<path d="M15.9167 26.1731L16.896 26.4517C16.9018 26.4329 17.4652 24.5226 19.1786 23.6716L18.7242 22.7624C16.6142 23.811 15.9445 26.0767 15.9167 26.1731Z" fill="#4C4C4C"/>
<path d="M31.9914 28.1059C32.0488 27.9946 32.0936 27.8793 32.1256 27.761C32.1313 27.7402 32.1353 27.7194 32.1401 27.6986C32.1684 27.5769 32.1873 27.4534 32.1873 27.3275C32.1873 26.796 31.9245 26.3156 31.5042 25.9532C31.8269 25.4827 31.9409 24.9408 31.8055 24.4369C31.6675 23.9235 31.2892 23.5276 30.7888 23.2859C30.9788 22.7477 30.9487 22.196 30.6864 21.7431C30.4289 21.2983 29.9646 21.0004 29.4058 20.8928C29.4491 20.3246 29.2771 19.7991 28.907 19.4295C28.5296 19.0545 28.0032 18.9 27.4494 18.9397C27.3435 18.3792 27.0407 17.9157 26.5871 17.6546C26.1258 17.3891 25.5772 17.3755 25.0522 17.5577C24.8054 17.0436 24.3925 16.6745 23.8864 16.5394C23.3714 16.4023 22.8377 16.5307 22.3786 16.8421C22.0065 16.409 21.5116 16.1586 20.9879 16.1586C20.455 16.1586 19.9733 16.4206 19.6099 16.8398C19.1381 16.5181 18.5952 16.4048 18.0894 16.5394C17.5746 16.677 17.1777 17.0543 16.9353 17.5532C16.3957 17.3639 15.8419 17.3939 15.3882 17.6554C14.9423 17.9122 14.6435 18.3757 14.5357 18.9325C13.9659 18.8894 13.439 19.0609 13.0684 19.43C12.6903 19.8073 12.5355 20.3348 12.5777 20.8901C12.0207 20.9994 11.5499 21.2921 11.2886 21.7436C11.0224 22.2041 11.0093 22.7507 11.1915 23.2743C10.6759 23.5204 10.3058 23.9322 10.1704 24.4374C10.0324 24.9505 10.1617 25.4827 10.4738 25.941C10.0396 26.3116 9.78856 26.8052 9.78856 27.3275C9.78856 28.4474 10.9305 29.3582 12.3339 29.3582C12.4673 29.3582 12.5956 29.3426 12.7239 29.3267L12.7196 29.3436L13.2431 29.4735C14.2026 29.7132 15.123 30.082 15.9803 30.5706C17.5028 31.4382 19.2353 31.8966 20.9879 31.8966C22.7406 31.8966 24.4731 31.4382 25.9955 30.5706C26.8528 30.082 27.7733 29.7132 28.7322 29.474L29.2562 29.3436L29.252 29.3267C29.3802 29.3426 29.5085 29.3582 29.642 29.3582C30.1801 29.3582 30.6775 29.2226 31.0886 28.9948L31.0919 29.0002C31.4888 28.7821 31.7891 28.4794 31.975 28.1341C31.9807 28.1244 31.9862 28.1153 31.9914 28.1059ZM30.6076 25.4507C30.3094 25.3526 29.984 25.2968 29.642 25.2968C29.027 25.2968 28.4702 25.4785 28.0298 25.7695C27.9622 25.6949 27.9025 25.6029 27.8719 25.4882C27.7295 24.9567 28.2843 24.327 29.0839 24.1129C29.8838 23.8987 30.68 24.1681 30.8224 24.6994C30.8855 24.9349 30.8015 25.2048 30.6076 25.4507ZM29.8048 22.2507C29.9276 22.4619 29.9164 22.7443 29.7926 23.0316C29.4792 23.0137 29.1503 23.0437 28.8205 23.132C28.2269 23.2909 27.7355 23.6104 27.3857 24.0048C27.3012 23.95 27.2199 23.8764 27.1603 23.7738C26.9957 23.4894 27.0917 23.1654 27.1638 22.9976C27.3074 22.662 27.6027 22.3467 27.9738 22.1335C28.345 21.9198 28.7628 21.8211 29.1294 21.866C29.3111 21.8873 29.6405 21.9664 29.8048 22.2507ZM28.1871 20.1474C28.3596 20.3194 28.4228 20.5946 28.378 20.9035C28.0658 20.9694 27.7564 21.0857 27.4648 21.2537C26.947 21.5517 26.5434 21.98 26.2995 22.4649C26.2058 22.4339 26.1101 22.3838 26.0276 22.3016C25.6371 21.9121 25.8021 21.0901 26.3875 20.5063C26.9729 19.9236 27.7971 19.7575 28.1871 20.1474ZM26.0785 18.5346C26.2903 18.6564 26.4221 18.9062 26.4588 19.2168C26.1782 19.3579 25.909 19.5478 25.6672 19.789C25.2324 20.2225 24.9677 20.7441 24.8623 21.2602C24.7616 21.2552 24.6543 21.2324 24.5513 21.1724C24.2662 21.0086 24.187 20.6794 24.1651 20.4982C24.1211 20.1358 24.219 19.7158 24.4333 19.3457C24.8466 18.6311 25.5991 18.2573 26.0785 18.5346ZM23.6232 17.5203C23.8596 17.5832 24.0515 17.7907 24.1681 18.0808C23.9339 18.2892 23.7226 18.5421 23.5521 18.8376C23.2533 19.3539 23.1184 19.926 23.1504 20.4677C23.0537 20.4875 22.9459 20.4922 22.8333 20.4622C22.3003 20.3194 22.0309 19.525 22.2449 18.728C22.4592 17.9305 23.0883 17.378 23.6232 17.5203ZM20.9879 17.174C21.2362 17.174 21.4721 17.3222 21.6598 17.5746C21.4878 17.8366 21.3493 18.1355 21.2608 18.465C21.102 19.0569 21.1341 19.6407 21.3016 20.1397C21.2119 20.1866 21.107 20.22 20.9879 20.22C20.4361 20.22 19.9698 19.5225 19.9698 18.697C19.9698 17.8715 20.4361 17.174 20.9879 17.174ZM18.3526 17.5203C18.5893 17.4573 18.8595 17.5411 19.106 17.7345C19.0076 18.0314 18.9517 18.3559 18.9517 18.697C18.9517 19.3103 19.1339 19.8656 19.4257 20.3048C19.3509 20.3722 19.2586 20.4317 19.1436 20.4622C18.6101 20.6028 17.9793 20.0505 17.7645 19.2535C17.5508 18.4563 17.8195 17.6623 18.3526 17.5203ZM15.511 19.2086C15.5329 19.0269 15.6122 18.6985 15.8973 18.5346C16.1096 18.4122 16.3927 18.4233 16.6803 18.5468C16.6624 18.8594 16.6925 19.1868 16.7809 19.5163C16.9403 20.1082 17.256 20.6065 17.6514 20.9553C17.597 21.0363 17.5242 21.1147 17.4245 21.1714C17.1394 21.3353 16.814 21.2398 16.6462 21.168C16.3097 21.0247 15.9935 20.7302 15.7797 20.3601C15.5655 19.991 15.467 19.5713 15.511 19.2086ZM13.7882 20.1479C13.9612 19.9764 14.2361 19.9134 14.5458 19.9575C14.612 20.2689 14.729 20.5775 14.8971 20.8683C15.1958 21.3846 15.6254 21.7872 16.1116 22.0304C16.0805 22.1238 16.0303 22.2193 15.9478 22.3016C15.5573 22.691 14.733 22.5264 14.1476 21.9426C13.5633 21.3588 13.3987 20.5368 13.7882 20.1479ZM12.1711 22.2507C12.2931 22.04 12.5446 21.9072 12.8551 21.8705C12.9965 22.1501 13.1869 22.4193 13.4288 22.6605C13.8635 23.094 14.3865 23.3655 14.904 23.4706C14.8981 23.5688 14.8742 23.6731 14.8155 23.7738C14.651 24.0581 14.3211 24.1372 14.1394 24.159C13.7736 24.2038 13.355 24.1057 12.9839 23.8915C12.2672 23.4788 11.8951 22.7269 12.1711 22.2507ZM11.1539 24.6994C11.2171 24.4636 11.4251 24.2718 11.7164 24.156C11.9257 24.3895 12.179 24.6002 12.4753 24.7708C12.9458 25.0415 13.4636 25.1845 13.9612 25.1845C14.0122 25.1845 14.0616 25.1785 14.1116 25.1756C14.1302 25.271 14.134 25.3771 14.1044 25.4872C13.9612 26.0186 13.1656 26.2888 12.3654 26.0739C11.5658 25.8607 11.0108 25.2308 11.1539 24.6994ZM10.8067 27.3275C10.8067 27.0798 10.9553 26.8446 11.2089 26.6574C11.4716 26.829 11.7714 26.9671 12.1017 27.0553C12.3736 27.1284 12.6448 27.1624 12.9071 27.1624C13.2175 27.1624 13.5118 27.1091 13.7832 27.0184C13.8285 27.1071 13.8611 27.2107 13.8611 27.3275C13.8611 27.8778 13.1616 28.3428 12.3339 28.3428C11.5061 28.3428 10.8067 27.8778 10.8067 27.3275ZM25.4907 29.6886C22.7522 31.2483 19.2236 31.2483 16.4857 29.6886C15.7633 29.2769 14.9982 28.9445 14.2056 28.6926C14.6197 28.3317 14.8792 27.855 14.8792 27.3275C14.8792 27.034 14.7971 26.7524 14.6505 26.4919C14.8553 26.2836 15.0104 26.0365 15.088 25.7507C15.1633 25.4688 15.1576 25.1776 15.0847 24.8907C15.3403 24.7383 15.552 24.5333 15.6972 24.2824C15.8453 24.0281 15.9157 23.7423 15.9187 23.4428C16.1998 23.3645 16.4588 23.2296 16.6686 23.0204C16.8747 22.8147 17.0163 22.5589 17.0976 22.2735C17.3954 22.2691 17.6815 22.1969 17.9335 22.0522C18.1881 21.9059 18.3917 21.6942 18.5445 21.4379C18.6879 21.4746 18.8331 21.4999 18.9798 21.4999C19.1222 21.4999 19.2659 21.4815 19.4073 21.4441C19.6904 21.3685 19.9412 21.2165 20.155 21.0091C20.4103 21.1516 20.6906 21.2354 20.9879 21.2354C21.2812 21.2354 21.5631 21.1536 21.8243 21.0086C22.0331 21.2126 22.2824 21.3663 22.5695 21.4436C22.7127 21.4815 22.8581 21.5004 23.0043 21.5004C23.1475 21.5004 23.2914 21.4815 23.434 21.4456C23.5867 21.6984 23.7912 21.9072 24.0418 22.0512C24.2963 22.1984 24.5814 22.2721 24.8807 22.276C24.9595 22.5559 25.0982 22.8117 25.3072 23.0204C25.5135 23.2259 25.7696 23.3672 26.0557 23.4483C26.0601 23.7453 26.1325 24.0306 26.2781 24.2819C26.4248 24.5353 26.6366 24.7383 26.8931 24.8907C26.8203 25.1733 26.8111 25.4653 26.8879 25.7522C26.9637 26.0345 27.116 26.2846 27.3241 26.4981C27.1807 26.7514 27.0967 27.031 27.0967 27.3275C27.0967 27.4559 27.116 27.5813 27.1446 27.7048C27.1516 27.7345 27.1618 27.7635 27.1705 27.793C27.1991 27.8904 27.2356 27.9854 27.2813 28.0783C27.2925 28.1011 27.304 28.1235 27.3161 28.1458C27.3755 28.2541 27.4454 28.3585 27.5289 28.4581C27.5304 28.4596 27.5314 28.4616 27.5329 28.4631C27.5483 28.4814 27.5595 28.5007 27.5751 28.5186L27.5829 28.5114C27.6403 28.5749 27.7039 28.6348 27.7703 28.6926C26.9781 28.9445 26.213 29.2769 25.4907 29.6886ZM28.2502 27.734C28.2401 27.7194 28.2314 27.7015 28.2217 27.6854C28.1988 27.6463 28.1799 27.6066 28.1647 27.5657C28.1575 27.5474 28.1498 27.529 28.1444 27.5097C28.1265 27.4504 28.1148 27.39 28.1148 27.3275C28.1148 26.7772 28.8142 26.3121 29.642 26.3121C30.4697 26.3121 31.1692 26.7772 31.1692 27.3275C31.1692 27.3991 31.156 27.47 31.1326 27.5392C31.1254 27.561 31.1117 27.5818 31.102 27.6031C31.0817 27.6487 31.0603 27.6946 31.0302 27.7382C31.0138 27.762 30.9919 27.7843 30.9733 27.8071C30.9405 27.8463 30.9064 27.885 30.8662 27.9209C30.8423 27.9422 30.8159 27.9626 30.7893 27.9829C30.7451 28.0169 30.6979 28.0493 30.6464 28.0798C30.375 28.2407 30.0243 28.3428 29.642 28.3428C29.0305 28.3428 28.4916 28.0885 28.2502 27.734Z" fill="#4C4C4C"/>
</svg>
