<svg xmlns="http://www.w3.org/2000/svg" viewBox="0 0 333.99 55.43"><defs><style>.cls-1{fill:#999;}</style></defs><title>Asset 6</title><g id="Layer_2" data-name="Layer 2"><g id="Layer_1-2" data-name="Layer 1"><path class="cls-1" d="M34.5,42.51a35,35,0,0,1-8.26.78c-.85,0-1.77,0-2.49-.06L15.09,28.47h-.46c-1.51,0-3.15,0-4.79-.07V43A24.37,24.37,0,0,1,5,43.36,27.08,27.08,0,0,1,0,43V1.51A75.42,75.42,0,0,1,14.17.13c12.73,0,18,5.32,18,13.51A13.48,13.48,0,0,1,24.67,26.3ZM9.84,20.34c1.77.06,3.54.06,5.18.06,5.12,0,7.15-2.75,7.15-6.16,0-3.61-2.36-5.84-7.21-5.84-1.77,0-3.41.06-5.12.19Z"/><path class="cls-1" d="M66.91,29.85H46.18c.6,4.39,3,6.36,7.68,6.36A16.09,16.09,0,0,0,63,33.06a10,10,0,0,1,3.55,6.63,21.73,21.73,0,0,1-13.78,4.39c-9.64,0-16.6-6-16.6-16.4,0-9.84,7-16.72,16.27-16.72,8.79,0,14.76,5.57,14.76,14.3A26.33,26.33,0,0,1,66.91,29.85ZM58,24.34c0-3-1.44-5.78-5.44-6-3.74,0-5.91,2.42-6.37,6Z"/><path class="cls-1" d="M70.92,40.15a9.29,9.29,0,0,1,3.87-6.56A18.34,18.34,0,0,0,85,36.74c3,0,4.07-1.12,4.07-2.5,0-1.64-1.64-2.49-6.76-3.41S71.84,28,71.84,21.06c0-6.43,5.9-10.1,13.71-10.1C92,11,96,12.46,98.21,13.84a9.88,9.88,0,0,1-3.41,6.82,19.84,19.84,0,0,0-9.12-2.29c-3.09,0-4.53.65-4.53,2.23s1.38,2.16,6.3,3.08c6.17,1.05,11.35,3.08,11.35,9.84,0,6.49-5,10.56-14.11,10.56C77.67,44.08,73,41.85,70.92,40.15Z"/><path class="cls-1" d="M129.89,40.47A15.5,15.5,0,0,1,119.79,44c-7.15,0-12.53-3-12.53-10.63v-13H102a25.9,25.9,0,0,1-.33-4.07,26.18,26.18,0,0,1,.33-3.94h5.31V4.13a33,33,0,0,1,5-.39,28.36,28.36,0,0,1,4.72.39v8.2h10.89a19.14,19.14,0,0,1,.46,3.87,21.78,21.78,0,0,1-.46,4.14H117V30.9c0,3.54,1.64,4.72,4.53,4.72a6.6,6.6,0,0,0,4.33-1.84A10,10,0,0,1,129.89,40.47Z"/><path class="cls-1" d="M132.06,27.42c0-10,7.22-16.66,17.12-16.66s17,6.49,17,16.66c0,10-7.21,16.6-17.12,16.6S132.06,37.72,132.06,27.42Zm24.27,0c0-5.12-2.62-8.46-7.21-8.46s-7.28,3.34-7.28,8.46,2.69,8.46,7.28,8.46S156.33,32.47,156.33,27.42Z"/><path class="cls-1" d="M223.51,21.45c0,13.84-9.51,22.3-23.94,22.3a96,96,0,0,1-13.78-.85V1.05a76.76,76.76,0,0,1,13.58-1C214.92,0,223.51,8.59,223.51,21.45Zm-10.76.13c0-7.54-4.52-12.4-12.92-12.4-1.31,0-2.69,0-4.2.14V34.5c1.44.07,2.89.14,4.46.14C208.16,34.64,212.75,29.52,212.75,21.58Z"/><path class="cls-1" d="M258.21,29.85H237.49c.59,4.39,3,6.36,7.67,6.36a16.09,16.09,0,0,0,9.18-3.15,10,10,0,0,1,3.55,6.63,21.73,21.73,0,0,1-13.78,4.39c-9.64,0-16.59-6-16.59-16.4,0-9.84,6.95-16.72,16.26-16.72,8.79,0,14.76,5.57,14.76,14.3A26.33,26.33,0,0,1,258.21,29.85Zm-8.92-5.51c0-3-1.44-5.78-5.44-6-3.74,0-5.9,2.42-6.36,6Z"/><path class="cls-1" d="M296.07,27.29c0,10.49-7.81,16.79-17.06,16.79a21,21,0,0,1-5.31-.59V55a30.79,30.79,0,0,1-9.77,0V15.74A24,24,0,0,1,278.82,11C288.66,11,296.07,16.27,296.07,27.29Zm-9.84.26c0-5.05-3.28-7.94-8.14-7.94a11.41,11.41,0,0,0-4.39.86v14.3a10.38,10.38,0,0,0,4.53.78C283,35.62,286.23,32.67,286.23,27.55Z"/><path class="cls-1" d="M299.88,27.42c0-10,7.21-16.66,17.12-16.66s17,6.49,17,16.66c0,10-7.22,16.6-17.12,16.6S299.88,37.72,299.88,27.42Zm24.27,0c0-5.12-2.63-8.46-7.22-8.46s-7.28,3.34-7.28,8.46,2.69,8.46,7.28,8.46S324.15,32.47,324.15,27.42Z"/></g></g></svg>