<svg xmlns="http://www.w3.org/2000/svg" viewBox="0 0 464.82 86.13"><defs><style>.cls-1{fill:#34e09f;}.cls-2{fill:#333;}</style></defs><title>Asset 5</title><g id="Layer_2" data-name="Layer 2"><g id="Layer_1-2" data-name="Layer 1"><path class="cls-1" d="M57.51,0,45.65,15.62l2.4,1.82a3.6,3.6,0,1,1,5.73,4.36l7.49,5.68L73.13,11.86Zm-.78,13a3.55,3.55,0,1,1,5-.68A3.56,3.56,0,0,1,56.73,13Zm4,7.32a2.66,2.66,0,1,1,3.74-.51A2.66,2.66,0,0,1,60.73,20.34Z"/><path class="cls-1" d="M75.14,17a7,7,0,0,0,1.34,1.84A9.38,9.38,0,0,1,78,21.88c.1.33.82,2.36.52,2.66,0,0-2.33,2.41-2.77,3.95a6.1,6.1,0,0,0-.07,1.33c0,.26.2.35.42.2A12.33,12.33,0,0,1,80,28a11.9,11.9,0,0,1,5.83.16c.25.07.4-.06.32-.31A6.75,6.75,0,0,0,85,25.59a5.07,5.07,0,0,0-2.64-1.32L81.42,24a.62.62,0,0,1-.48-.45c0-.16,0-.33,0-.34a22.53,22.53,0,0,0-.44-3.37,9.64,9.64,0,0,0-1.66-4,2.42,2.42,0,0,0-1.57-1c-1.07-.1-2.57.89-2.11,2.09Z"/><path class="cls-1" d="M80.33,73.52a9.69,9.69,0,0,0,5.14-4A13.35,13.35,0,0,0,87.1,66c2-6.58,5.31-21.91,5.41-28.15s-7-9.42-12.05-8.2S69.12,37.87,71.6,42c2,3.4,4.43,11,5.39,18.55.38,3,.65,6.1,1,9.16a20,20,0,0,0,.33,2.43c.25,1.18.87,1.73,2.06,1.36Zm-.21-13.19c-.23-1.86-.56-3.7-.93-5.54a81.73,81.73,0,0,0-2.57-9.18c-.74-2.29-2.12-4.42-2.26-5.35-.23-1.49,1-2.9,2.51-2.13a6,6,0,0,1,2.38,2.22c1.31,2.09,1.67,4.91,1.94,7.18a58,58,0,0,1,.09,11.26c-.08,1-.79,4.85-.72,5.65-.13-1.37-.27-2.76-.44-4.11Z"/><path class="cls-1" d="M50,58.31a11.66,11.66,0,0,0-5.43-1.14c-1.14,0-1.21,1.84,0,1.78a10.12,10.12,0,0,1,5,1.1,8.35,8.35,0,0,1,1.31-1.69A10.83,10.83,0,0,1,52.67,57a.93.93,0,0,0-.27-.36c-2.84-2.29-4.23-5.6-5.56-8.89-.44-1.07-2-.2-1.57.85a40,40,0,0,0,2.14,4.63,34.19,34.19,0,0,1-2.81-4c-.59-1-2.16-.14-1.57.85a31.37,31.37,0,0,0,7,8.19Z"/><path class="cls-1" d="M51.26,61.31a7.14,7.14,0,0,0-1.15,3.52,3.47,3.47,0,0,0,1.11,2.62l.86.66A8.61,8.61,0,0,1,54.26,63c.79-.84,2.57.92,1.79,1.76a7,7,0,0,0-1.95,4.8l1.58,1.35a8.21,8.21,0,0,1,2-4.23c.79-.84,2.67,1,1.88,1.83a6.92,6.92,0,0,0-1.67,4.16l1.4,1.07a7.82,7.82,0,0,1,1.85-3.37c.79-.85,2.52.84,1.73,1.68a6.33,6.33,0,0,0-1.54,3.26l9.07,7a2.89,2.89,0,0,0,1.89.89,2.05,2.05,0,0,0,1.93-1.16,2.55,2.55,0,0,0-.5-2.79L60.15,58.42a2.9,2.9,0,0,0-2.26-1.1,7.33,7.33,0,0,0-4,1.35,10.11,10.11,0,0,0-1.51,1.14,7,7,0,0,0-1.17,1.5Z"/><path class="cls-1" d="M42.9,1.22a4.08,4.08,0,0,0-3-1.06c-3.37,0-8.45,2.38-14.34,6.71,4.29,3,5.78,5.25,5.66,5.53a.91.91,0,0,1-.44.07A7.22,7.22,0,0,1,28.61,12a30.18,30.18,0,0,1-5.95-2.92C20.45,10.9,18.15,13,16,15.16a41.57,41.57,0,0,1,7.37,5.76c1.82,1.89,2.15,3,2,3.19,0,0-.22.17-.79.17a9.8,9.8,0,0,1-2.95-.62,40.66,40.66,0,0,1-8.5-4.22c-.26-.16-.52-.34-.78-.51-2,2.2-3.66,4.09-4.46,5.17-.37.48-.73.95-1.08,1.43q1.24.66,2.46,1.41a30.7,30.7,0,0,1,5.58,4.35c1.34,1.39,1.46,2,1.48,2.15s-.66.23-2.58-.41a31.3,31.3,0,0,1-6.33-3.14C6.62,29.36,5.8,28.78,5,28.18c-4.71,7-6.24,12.58-3.93,14.88a4,4,0,0,0,3,1.06h0c5.36,0,15.18-6.21,24.43-15.46A75.11,75.11,0,0,0,41.45,12C44.19,6.85,44.7,3,42.9,1.22Z"/><path class="cls-1" d="M15.1,53.49A4.07,4.07,0,0,1,12,51.34l-.42-.87a.66.66,0,0,0,.31-.9l-1.17-2.44a.69.69,0,0,0-.91-.31l-7.3,3.53a.69.69,0,0,0-.31.91l1.18,2.43a.66.66,0,0,0,.9.31l.42.87a4.09,4.09,0,0,1-.23,3.77,5.22,5.22,0,0,0-.13,4.8l7.48,15.45a2.72,2.72,0,0,0,3.61,1.26l9.73-4.72a2.69,2.69,0,0,0,1.26-3.61L18.94,56.37A5.23,5.23,0,0,0,15.1,53.49Zm-8.39-.66,2.44-1.18.42.87a6.73,6.73,0,0,0,5.08,3.64,2.56,2.56,0,0,1,1.86,1.39L17.2,59a19.27,19.27,0,0,1-5.11,1.41A20.66,20.66,0,0,0,6.65,61.9a2.53,2.53,0,0,1,.18-2,6.71,6.71,0,0,0,.3-6.25Z"/><path class="cls-1" d="M70,61.18a1.44,1.44,0,0,1-1,0l-1.86-.74A5.42,5.42,0,0,1,64.9,52a2.54,2.54,0,0,0,.48-2.25A2.57,2.57,0,0,0,63.85,48l-1.49-.59A5.41,5.41,0,0,1,60,39.24l.66-.91a2.57,2.57,0,0,0-1-3.82,1.42,1.42,0,1,1,1.23-2.57A5.42,5.42,0,0,1,63,40l-.66.91a2.57,2.57,0,0,0,1.12,3.89l1.49.59a5.41,5.41,0,0,1,2.23,8.4,2.57,2.57,0,0,0,1.06,4l1.86.74A1.42,1.42,0,0,1,70,61.18Z"/><path class="cls-1" d="M40.81,34.67c-4.18-3.82-4.21-7-4.37-7.78a13.27,13.27,0,0,0-3.93,2.67,18.61,18.61,0,0,0-4.43,7.51,29.12,29.12,0,0,0-1.27,6.11l-7.18.49h-.19l0,0h0l0,0-.05,0,0,0,0,0,0,0,0,0-.05,0,0,0,0,0,0,0,0,0,0,0s0,0,0,0l0,0v0l0,0h0v0a.14.14,0,0,0,0,.06v0s0,0,0,.06a.06.06,0,0,1,0,0v0s0,0,0,.06v.12h0a.09.09,0,0,1,0,0v.08a.07.07,0,0,0,0,0v0l0,.05v0s0,0,0,.05l0,0,0,0,0,0,0,0,0,0,0,0,0,0,0,0,0,0,0,0,0,0,.05,0,0,0,.06,0h0l6.77,2.86L29,55.18h0v0a.08.08,0,0,1,0,.05l0,0,0,.06h0l.06.06h0l.05.06h0l.05,0h0l.07.05h0l0,0h0l0,0h0l.07,0h.46l.08,0h0l.06,0h0l.06,0,0,0,0,0,0,0,0,0,0,0,0,0,0,0,0,0,0,0,0,0,0,0s0,0,0-.05l0,0a.08.08,0,0,0,0,0l0,0s0,0,0,0v0a.07.07,0,0,1,0,0s0,0,0,0v0s0,0,0-.06h0l.5-7.22a29.55,29.55,0,0,0,6.08-1.27A18.81,18.81,0,0,0,44.91,42c1.72-1.72,1.8-1.53,2.79-4.11C47.25,37.73,43.22,36.89,40.81,34.67Z"/><path class="cls-1" d="M50.16,26a1.58,1.58,0,0,0-1.57-1.57,36.19,36.19,0,0,0-8.3.9q-.93.23-1.83.48l.07.32c.08.38.17.76.19.86a12.53,12.53,0,0,0,8.9,8.89l1.14.32c.19-.62.35-1.25.5-1.9A36.14,36.14,0,0,0,50.16,26Zm-3.93,4.77-.13.11L46,31l-.14.08-.15.07-.15.06-.16,0-.17,0h-.33l-.16,0-.16,0-.16-.06a.61.61,0,0,1-.14-.07L44.1,31l-.13-.1-.12-.11a1.72,1.72,0,0,1-.49-1.19v-.17l0-.16a.94.94,0,0,1,0-.16c0-.05,0-.11,0-.16a1,1,0,0,0,.07-.15l.09-.14a1.13,1.13,0,0,1,.1-.13l.11-.12.12-.11.13-.1.15-.09.14-.07.16-.05.16,0,.16,0h.33l.17,0,.16,0,.15.05.15.07.14.09.13.1a.69.69,0,0,1,.13.11,1.69,1.69,0,0,1,.49,1.19A1.72,1.72,0,0,1,46.23,30.75Z"/><path class="cls-1" d="M44.34,77.57C43.41,76,42.43,74.46,43,73.91a.18.18,0,0,0,0-.18.16.16,0,0,0-.15-.11,1,1,0,0,0-.35,0,17.92,17.92,0,0,1,4.32-5c.76-.64.92-.81.87-1a.22.22,0,0,0-.2-.16c-1.53-.23-3.71,1.11-5.34,2.85.27-1.4.47-2.64.57-3.59.17-1.66,0-1.85-.22-1.9s-.47,0-1.13,1.61c-.37.88-.81,2.09-1.24,3.45-.57-2.35-1.83-4.63-3.32-5.15a.25.25,0,0,0-.25,0c-.15.16-.06.37.27,1.31a17.79,17.79,0,0,1,1.39,6.41.63.63,0,0,0-.23-.14.15.15,0,0,0-.18,0,.19.19,0,0,0,0,.18c.22.76-1.4,1.68-3,2.56s-2.92,1.67-3.48,2.59a3.9,3.9,0,0,0-.27,3.6c.81,1.93,3.12,3.66,6,4.42h.05c2.94.76,5.8.37,7.43-1a3.94,3.94,0,0,0,1.49-3.3C46.09,80.44,45.2,79,44.34,77.57Z"/><circle class="cls-1" cx="36.45" cy="59.66" r="2.34"/><circle class="cls-1" cx="53.63" cy="80.41" r="2.34"/><path class="cls-2" d="M165.34,61.45a35.11,35.11,0,0,1-8.27.78c-.85,0-1.77,0-2.49-.06l-8.66-14.76h-.46c-1.51,0-3.15,0-4.79-.07V61.9a23.65,23.65,0,0,1-4.85.4,26.33,26.33,0,0,1-5-.4V20.45A74.76,74.76,0,0,1,145,19.07c12.73,0,18,5.31,18,13.51a13.49,13.49,0,0,1-7.48,12.66ZM140.67,39.27c1.78.07,3.55.07,5.19.07,5.11,0,7.15-2.76,7.15-6.17,0-3.61-2.37-5.84-7.22-5.84-1.77,0-3.41.07-5.12.2Z"/><path class="cls-2" d="M197.75,48.79H177c.59,4.39,3,6.36,7.67,6.36A16.22,16.22,0,0,0,193.88,52a9.94,9.94,0,0,1,3.54,6.62A21.73,21.73,0,0,1,183.64,63c-9.64,0-16.59-6-16.59-16.4,0-9.84,6.95-16.73,16.27-16.73,8.79,0,14.76,5.58,14.76,14.3A27.39,27.39,0,0,1,197.75,48.79Zm-8.92-5.52c0-3-1.45-5.77-5.45-6-3.74,0-5.9,2.42-6.36,6Z"/><path class="cls-2" d="M201.75,59.08a9.37,9.37,0,0,1,3.87-6.56,18.3,18.3,0,0,0,10.24,3.15c3,0,4.06-1.11,4.06-2.49,0-1.64-1.64-2.49-6.75-3.41s-10.5-2.89-10.5-9.77c0-6.43,5.9-10.11,13.71-10.11,6.49,0,10.5,1.51,12.66,2.89a9.87,9.87,0,0,1-3.41,6.82,19.84,19.84,0,0,0-9.12-2.29c-3.08,0-4.52.65-4.52,2.23s1.37,2.16,6.29,3.08c6.17,1.05,11.35,3.08,11.35,9.84,0,6.49-5,10.56-14.1,10.56C208.51,63,203.79,60.79,201.75,59.08Z"/><path class="cls-2" d="M260.73,59.41a15.55,15.55,0,0,1-10.1,3.48c-7.15,0-12.53-3-12.53-10.63v-13h-5.32a27,27,0,0,1-.32-4.06,27.42,27.42,0,0,1,.32-3.94h5.32v-8.2a32.72,32.72,0,0,1,5-.39,28.19,28.19,0,0,1,4.72.39v8.2h10.89a18.45,18.45,0,0,1,.46,3.87,20.9,20.9,0,0,1-.46,4.13H247.8V49.83c0,3.55,1.65,4.73,4.53,4.73a6.58,6.58,0,0,0,4.33-1.84A10,10,0,0,1,260.73,59.41Z"/><path class="cls-2" d="M262.9,46.36c0-10,7.21-16.66,17.12-16.66s17,6.49,17,16.66c0,10-7.22,16.59-17.12,16.59S262.9,56.66,262.9,46.36Zm24.27,0c0-5.12-2.63-8.46-7.22-8.46s-7.28,3.34-7.28,8.46,2.69,8.46,7.28,8.46S287.17,51.41,287.17,46.36Z"/><path class="cls-2" d="M354.34,40.39c0,13.84-9.51,22.3-23.94,22.3a97.73,97.73,0,0,1-13.78-.85V20a76.93,76.93,0,0,1,13.58-1C345.75,18.94,354.34,27.53,354.34,40.39Zm-10.75.13c0-7.54-4.53-12.4-12.93-12.4-1.31,0-2.69,0-4.2.13V53.44c1.45.07,2.89.13,4.47.13C339,53.57,343.59,48.46,343.59,40.52Z"/><path class="cls-2" d="M389.05,48.79H368.32c.59,4.39,3,6.36,7.68,6.36A16.22,16.22,0,0,0,385.18,52a9.94,9.94,0,0,1,3.54,6.62A21.7,21.7,0,0,1,375,63c-9.65,0-16.6-6-16.6-16.4,0-9.84,6.95-16.73,16.27-16.73,8.79,0,14.76,5.58,14.76,14.3A27.39,27.39,0,0,1,389.05,48.79Zm-8.92-5.52c0-3-1.45-5.77-5.45-6-3.74,0-5.9,2.42-6.36,6Z"/><path class="cls-2" d="M426.9,46.23c0,10.49-7.8,16.79-17,16.79a21.06,21.06,0,0,1-5.32-.59V74a30,30,0,0,1-9.77,0V34.68a24,24,0,0,1,14.89-4.79C419.49,29.89,426.9,35.21,426.9,46.23Zm-9.84.26c0-5.05-3.28-7.94-8.13-7.94a11.44,11.44,0,0,0-4.4.85V53.71a10.41,10.41,0,0,0,4.53.78C413.85,54.56,417.06,51.61,417.06,46.49Z"/><path class="cls-2" d="M430.71,46.36c0-10,7.22-16.66,17.12-16.66s17,6.49,17,16.66c0,10-7.22,16.59-17.12,16.59S430.71,56.66,430.71,46.36Zm24.27,0c0-5.12-2.62-8.46-7.21-8.46s-7.29,3.34-7.29,8.46,2.69,8.46,7.29,8.46S455,51.41,455,46.36Z"/></g></g></svg>