<svg width="20" height="44" viewBox="0 0 20 44" fill="none" xmlns="http://www.w3.org/2000/svg">
<path d="M10.2245 19.416C10.7814 19.416 11.3111 19.167 11.6776 18.7332C11.8979 18.4728 11.8714 18.0775 11.6189 17.8507C11.366 17.6235 10.983 17.6505 10.7627 17.9113C10.6268 18.0719 10.4306 18.1645 10.2245 18.1645C10.0182 18.1645 9.82223 18.0719 9.68634 17.9113C9.46575 17.6505 9.08272 17.6235 8.83021 17.8507C8.57738 18.0775 8.55115 18.4728 8.77111 18.7332C9.13771 19.167 9.66738 19.416 10.2245 19.416ZM12.1776 31.0893H8.27147C7.93616 31.0893 7.66469 31.3696 7.66469 31.715C7.66469 32.0605 7.93616 32.3408 8.27147 32.3408H12.1776C12.5126 32.3408 12.7844 32.0605 12.7844 31.715C12.7844 31.3696 12.5126 31.0893 12.1776 31.0893ZM11.2058 33.6474H9.24326C8.90795 33.6474 8.63648 33.9276 8.63648 34.2731C8.63648 34.6189 8.90795 34.8988 9.24326 34.8988H11.2058C11.5408 34.8988 11.8126 34.6189 11.8126 34.2731C11.8126 33.9276 11.5408 33.6474 11.2058 33.6474ZM9.61776 39.8021V40.5644C9.61776 40.9102 9.88923 41.1901 10.2245 41.1901C10.5595 41.1901 10.8313 40.9102 10.8313 40.5644V39.8021C10.8313 39.4566 10.5595 39.1764 10.2245 39.1764C9.88923 39.1764 9.61776 39.4566 9.61776 39.8021ZM14.6082 18.2936V17.647C14.6082 17.3015 14.3364 17.0212 14.0014 17.0212C13.6661 17.0212 13.3946 17.3015 13.3946 17.647V18.2936C13.3946 18.639 13.6661 18.9193 14.0014 18.9193C14.3364 18.9193 14.6082 18.639 14.6082 18.2936ZM6.44765 17.0212C6.11234 17.0212 5.84087 17.3015 5.84087 17.647V18.2936C5.84087 18.639 6.11234 18.9193 6.44765 18.9193C6.78264 18.9193 7.05443 18.639 7.05443 18.2936V17.647C7.05443 17.3015 6.78264 17.0212 6.44765 17.0212ZM17.1956 15.0524L15.2251 13.0654C14.91 12.7476 14.7292 12.3047 14.7292 11.8504V5.33095C14.9672 5.31563 15.2004 5.2348 15.4027 5.0914C15.7649 4.83459 15.981 4.41059 15.981 3.95757V2.32185C15.9807 1.30795 15.1809 0.482758 14.1974 0.482758H6.2514C5.26791 0.482758 4.46803 1.30795 4.46803 2.32185V3.95757C4.46803 4.41059 4.6842 4.83459 5.04605 5.0914C5.24831 5.23513 5.48154 5.31563 5.71952 5.33095V6.58862C5.71952 6.93408 5.99099 7.21436 6.3263 7.21436C6.6616 7.21436 6.93307 6.93408 6.93307 6.58862V4.98516L7.0775 4.92812C7.44631 4.78244 7.85273 4.78244 8.22153 4.92812L8.67599 5.10737C9.17531 5.30455 9.69993 5.40297 10.2242 5.40297C10.7488 5.40297 11.2734 5.30455 11.7728 5.10737L12.2272 4.92812C12.596 4.78244 13.0025 4.78244 13.3713 4.92812L13.5157 4.98516V11.8504C13.5157 12.6394 13.8295 13.4085 14.3766 13.9603L16.3473 15.947C17.7739 17.3859 18.5924 19.3912 18.5924 21.449V26.6322H15.5702C15.3866 23.7551 13.0597 21.4721 10.2245 21.4721C7.38911 21.4721 5.06217 23.7551 4.87856 26.6322H1.85667V21.449C1.85667 19.3912 2.67487 17.3859 4.10175 15.947L6.07221 13.9603C6.61957 13.4085 6.93339 12.6394 6.93339 11.8504V9.49082C6.93339 9.14503 6.6616 8.86508 6.32661 8.86508C5.9913 8.86508 5.71983 9.14503 5.71983 9.49082V11.8504C5.71983 12.3047 5.53906 12.7476 5.22398 13.0654L3.25321 15.0524C1.59436 16.725 0.643108 19.0565 0.643108 21.449V38.5073C0.643108 41.0946 2.68435 43.2 5.19364 43.2H15.2554C16.2816 43.2 17.2881 42.8373 18.0893 42.1789C18.3516 41.9635 18.3946 41.5698 18.1857 41.2996C17.9771 41.0291 17.5953 40.9848 17.333 41.2002C16.7373 41.6898 16.019 41.9485 15.2554 41.9485H5.19364C3.35339 41.9485 1.85667 40.4047 1.85667 38.5073V33.2582H4.87856C5.06217 36.135 7.38911 38.4183 10.2242 38.4183C13.0597 38.4183 15.3866 36.135 15.5702 33.2582H18.5921V38.5073C18.5921 38.7009 18.5766 38.8944 18.546 39.0828C18.49 39.4237 18.7128 39.7467 19.0434 39.8041C19.0775 39.8099 19.1113 39.8129 19.1448 39.8129C19.4356 39.8129 19.6925 39.5965 19.7424 39.2907C19.7845 39.0339 19.8057 38.7703 19.8057 38.5073V21.449C19.806 19.0565 18.8544 16.725 17.1956 15.0524ZM14.6028 4.07425L13.8049 3.75942C13.1564 3.50359 12.4421 3.50359 11.7936 3.75942L11.3392 3.93867C10.6202 4.22221 9.82855 4.22221 9.1099 3.93867L8.65513 3.7591C8.3312 3.63134 7.99051 3.56746 7.64952 3.56746C7.30884 3.56746 6.96815 3.63134 6.64391 3.7591L5.84593 4.07425C5.79694 4.09348 5.75807 4.07751 5.73405 4.06024C5.71003 4.04329 5.68159 4.01168 5.68159 3.95757V2.32185C5.68159 1.9979 5.93726 1.73424 6.2514 1.73424H14.1977C14.5118 1.73424 14.7675 1.9979 14.7675 2.32185V3.95757C14.7675 4.01168 14.7387 4.04361 14.715 4.06056C14.691 4.07751 14.6521 4.09348 14.6028 4.07425ZM4.8656 32.0067H1.85667V27.8837H4.8656V32.0067ZM14.3699 32.8916C14.3699 35.2489 12.5101 37.1668 10.2245 37.1668C7.93869 37.1668 6.07916 35.2489 6.07916 32.8916V26.9989C6.07916 24.6416 7.93869 22.7236 10.2245 22.7236C12.5101 22.7236 14.3699 24.6416 14.3699 26.9989V32.8916ZM18.5924 32.0067H15.5835V27.8837H18.5924V32.0067ZM10.2245 24.109C8.67946 24.109 7.42229 25.4055 7.42229 26.9989C7.42229 28.5919 8.67946 29.8883 10.2245 29.8883C11.7696 29.8883 13.0265 28.5919 13.0265 26.9989C13.0265 25.4055 11.7696 24.109 10.2245 24.109ZM10.2245 28.6369C9.3485 28.6369 8.63585 27.9019 8.63585 26.9989C8.63585 26.0954 9.3485 25.3605 10.2245 25.3605C11.1003 25.3605 11.8129 26.0954 11.8129 26.9989C11.8129 27.9019 11.1003 28.6369 10.2245 28.6369ZM5.60353 39.8021V40.5644C5.60353 40.9102 5.87532 41.1901 6.21031 41.1901C6.54562 41.1901 6.81709 40.9102 6.81709 40.5644V39.8021C6.81709 39.4566 6.54562 39.1764 6.21031 39.1764C5.87532 39.1764 5.60353 39.4566 5.60353 39.8021ZM13.6317 39.8021V40.5644C13.6317 40.9102 13.9035 41.1901 14.2384 41.1901C14.5738 41.1901 14.8452 40.9102 14.8452 40.5644V39.8021C14.8452 39.4566 14.5738 39.1764 14.2384 39.1764C13.9035 39.1764 13.6317 39.4566 13.6317 39.8021Z" fill="#4C4C4C"/>
</svg>
